<svg xmlns="http://www.w3.org/2000/svg" viewBox="0 0 339 199.8"><defs><style>.cls-1{fill:#ef161e;}.cls-2{fill:#fff;}.cls-3{fill:#8d5b2d;}</style></defs><title>Asset 1</title><g id="Layer_2" data-name="Layer 2"><g id="Layer_1-2" data-name="Layer 1"><g id="layer1"><g id="g2991"><g id="g282"><path id="path284" class="cls-1" d="M0,100A100,100,0,1,0,100.19,0,99.82,99.82,0,0,0,0,100m70.67,50.63V133.45H92.35V65.28H72.51V48.13h38v85.32h23.36l-6.19,17.17Z"/></g><path id="path2989" class="cls-2" d="M70.71,142V133.5H92.45V65.27H72.65v-17h37.83v85.2h23.2l-.1.4c-.06.22-1.41,4-3,8.44l-2.9,8-28.49,0-28.48,0V142Z"/></g></g></g><g id="Layer_7" data-name="Layer 7"><g id="layer1-2" data-name="layer1"><g id="g3007"><g id="g370"><path id="path372" class="cls-3" d="M139,100A100,100,0,1,0,238.9.09,99.68,99.68,0,0,0,139,100m72.06,27.86c7.61,6.82,16.27,9.93,24.75,9.93,12.59,0,21.68-6.61,21.68-18.61,0-9.68-7.85-17.32-20-17.32-5.77,0-12.2,2.27-17.54,6L204.63,106l2.91-60.08h68.12l-6,17.33h-46l-1.46,25.18h.23c5.57-2.88,12.79-4.13,18.77-4.13,18.59,0,37.15,12.61,37.15,34.7,0,19.4-16.11,37.15-41.29,37.15-16.92,0-29.49-5.57-39-15.27Z"/></g><g id="g3001"><g id="g2996"><g id="g2992"><g id="g2989"><path id="path2987" class="cls-2" d="M229.46,155.43a52,52,0,0,1-28.53-12.31l-2.54-2.29,6.15-6.17c3.39-3.39,6.28-6.16,6.43-6.16a22.84,22.84,0,0,1,3,2.05c15.34,11.53,37.37,9.22,42.5-4.45,1.47-3.94,1.27-10.76-.42-14.2-3.54-7.18-12.51-11.24-21.94-9.92a35.42,35.42,0,0,0-12.34,4.39l-1.94,1.22-7.31-.88c-4-.48-7.39-.92-7.48-1s2.4-56,2.71-58.1L208,46h67.34l-2.88,8.37-2.89,8.38-23,.13-23,.13-.29,3.12c-.59,6.43-1.33,22-1.06,22.26a6.91,6.91,0,0,0,2.91-.79c7.14-2.94,18.4-3.77,25.61-1.9C263.42,89,272.8,97.31,276.5,108.58c1,3.11,1.21,4.65,1.21,10.17,0,5.82-.15,7-1.45,10.92-4.58,14-17.24,23.78-33.37,25.8a49.77,49.77,0,0,1-13.43,0Z"/></g></g></g></g></g></g></g></g></svg>