<svg xmlns="http://www.w3.org/2000/svg" viewBox="0 0 337 200"><defs><style>.cls-1{fill:#9c0;}.cls-2{fill:#fff;}.cls-3{fill:#ee2722;}.cls-4{fill:#231f20;}</style></defs><title>Asset 36</title><g id="Layer_2" data-name="Layer 2"><g id="Layer_13" data-name="Layer 13"><g id="layer1"><g id="g3005"><g id="g2999"><g id="g504"><path id="path506" class="cls-1" d="M99.91,200A100,100,0,1,0,0,100.08,100,100,0,0,0,99.91,200m28.94-47.59c-24.61,0-39.51-20.05-39.51-52.71,0-32.88,14.9-52.94,39.51-52.94,25,0,40.14,20.06,40.14,52.94,0,32.66-15.1,52.71-40.14,52.71m-78.58-2.05v-85h-18l6-16.76H69.51V150.35Zm78.58-15.3c13.86,0,20.28-13.45,20.28-35.36,0-22.13-6.42-35.79-20.28-35.79-13,0-20.06,13.66-20.06,35.79,0,21.91,7,35.36,20.06,35.36"/></g><path id="path2995" class="cls-2" d="M50.46,107.79V65.3l-8.91-.13L32.63,65l2.17-6,3-8.12.79-2.13H69.46v101.5h-19Z"/><path id="path2997" class="cls-2" d="M123.33,151.75a34.12,34.12,0,0,1-23.72-14.57,41,41,0,0,1-6.1-12.08c-2.62-7.45-3.7-14.73-3.72-25.07a117.09,117.09,0,0,1,.62-13c3.4-21.65,13.16-34.72,29-38.8a47.29,47.29,0,0,1,17-.46c16.76,3.06,28,16.85,31.33,38.51,1,6.5,1,19.83,0,26.73a67.09,67.09,0,0,1-5.37,18c-5.21,10.36-13.82,17.55-23.88,19.94a48.6,48.6,0,0,1-15.13.78Zm12.9-18c7.44-3.49,11.52-12.16,12.77-27.15.64-7.67.08-17.86-1.31-23.8-3.11-13.33-9.68-19.55-20-18.89-6.54.42-11.27,3.91-14.49,10.68-6,12.63-6.12,36.36-.27,49.41,2.39,5.33,7,9.6,11.77,10.86,2.75.74,8.83.15,11.52-1.11Z"/></g></g></g></g><g id="Layer_17" data-name="Layer 17"><g id="layer1-2" data-name="layer1"><g id="g2998"><g id="g658"><path id="path660-3" class="cls-3" d="M236.91,200C296,200,337,151.11,337,99.91,337,41.13,288.13,0,236.91,0,178,0,137,49.05,137,99.91,137,159,186.05,200,236.91,200m0-8.27c-53.72,0-91.64-44.38-91.64-91.82,0-53.38,43.84-91.66,91.64-91.66,53.72,0,91.84,44.4,91.84,91.66,0,53.36-43.68,91.82-91.84,91.82m-79.79-91.64c0,46.73,38.28,79.79,79.79,79.79,47.8,0,80-39.35,80-79.79,0-48.53-39.89-80-80-80-47.26,0-79.79,38.82-79.79,80m79.79,71.7c-42,0-71.72-35.06-71.72-71.7,0-42.77,35.6-71.9,71.72-71.9,42.77,0,71.88,35.77,71.88,71.9,0,42-35.4,71.7-71.88,71.7"/></g><g id="g662"><path id="path664" class="cls-4" d="M200.07,139.8h15.1V58.21H190l-4.83,13.47h14.9Zm29.11-18.5h38.28v18.5h14.92V121.3h8.09L295,108.54H282.38V86.78H267.46v21.76H245.71L267.3,58.21H251.1L229.18,110Z"/></g><g id="g2994"><g id="g2991"><path id="path2989" class="cls-2" d="M223.54,190.5a98.61,98.61,0,0,1-19-5C174,174.17,151.19,145.39,146.41,112c-.94-6.58-.83-19.91.22-26.13a90.59,90.59,0,0,1,12.46-33.83A92.68,92.68,0,0,1,224,9.53a112.46,112.46,0,0,1,26.38,0C283.75,14.56,311.1,37.16,323,69.54A91.14,91.14,0,0,1,314.84,148a92.47,92.47,0,0,1-37.63,33.82,85.44,85.44,0,0,1-40.75,9.41,119.9,119.9,0,0,1-12.92-.73ZM251,178.79c37.73-6.11,65.94-39.74,66-78.68,0-26.48-11.76-49.7-33-65C269.85,25,249.48,18.93,233.21,20,207.6,21.78,187.73,32.29,173,51.9c-18.09,24-21.05,57.43-7.49,84.41,11.62,23.1,35.29,39.84,60.74,42.95a80.23,80.23,0,0,0,24.75-.47Z"/></g></g></g><path id="path823" class="cls-2" d="M228,171.08c-30.88-4.29-54.83-26.86-61.26-57.74A84.73,84.73,0,0,1,166,91.27c4-31.64,28.18-56.63,60.05-62,6.15-1,20.07-.75,25.71.52C279.87,36.14,301,57.7,307.28,86.59c1.31,6,1.32,21.46,0,27.48A69.91,69.91,0,0,1,301,131.84c-9.66,19.49-29.22,34.24-51.1,38.51C245,171.31,232.59,171.72,228,171.08Zm-12.5-72v-41l-12.87.13-12.86.13-2.36,6.5c-1.29,3.58-2.36,6.67-2.38,6.88s3.35.37,7.47.37H200v68h15.5Zm67,31.78v-9.23l4.12-.14,4.11-.15,2.11-6c1.16-3.3,2.12-6.28,2.14-6.62s-1.54-.63-6.23-.63h-6.25V86.59h-15v21.5H256.91c-9.82,0-10.54-.06-10.31-.87.14-.48,4.8-11.45,10.36-24.38s10.22-23.78,10.36-24.14-1.48-.6-8.12-.5l-8.38.14L239.9,84.09,229,109.84v5.88l0,5.87h38.5v18.5h15Z"/></g></g></g></svg>