<svg xmlns="http://www.w3.org/2000/svg" viewBox="0 0 337 200"><defs><style>.cls-1{fill:#ee2722;}.cls-2{fill:#231f20;}.cls-3{fill:#fff;}.cls-4{fill:#de64a1;stroke:#000;stroke-opacity:0;stroke-width:0.2px;}</style></defs><title>Asset 37</title><g id="Layer_2" data-name="Layer 2"><g id="Layer_17" data-name="Layer 17"><g id="layer1"><g id="g2998"><g id="g658"><path id="path660-3" class="cls-1" d="M99.91,200C159,200,200,151.11,200,99.91,200,41.13,151.13,0,99.91,0,41,0,0,49.05,0,99.91,0,159,49.05,200,99.91,200m0-8.27c-53.72,0-91.64-44.38-91.64-91.82,0-53.38,43.84-91.66,91.64-91.66,53.72,0,91.84,44.4,91.84,91.66,0,53.36-43.68,91.82-91.84,91.82M20.12,100.09c0,46.73,38.28,79.79,79.79,79.79,47.8,0,80-39.35,80-79.79,0-48.53-39.89-80-80-80-47.26,0-79.79,38.82-79.79,80m79.79,71.7c-42,0-71.72-35.06-71.72-71.7,0-42.77,35.6-71.9,71.72-71.9,42.77,0,71.88,35.77,71.88,71.9,0,42-35.4,71.7-71.88,71.7"/></g><g id="g662"><path id="path664" class="cls-2" d="M63.07,139.8h15.1V58.21H53L48.17,71.68h14.9Zm29.11-18.5h38.28v18.5h14.92V121.3h8.09L158,108.54H145.38V86.78H130.46v21.76H108.71L130.3,58.21H114.1L92.18,110Z"/></g><g id="g2994"><g id="g2991"><path id="path2989" class="cls-3" d="M86.54,190.5a98.61,98.61,0,0,1-19-5C37,174.17,14.19,145.39,9.41,112c-.94-6.58-.83-19.91.22-26.13A90.59,90.59,0,0,1,22.09,52.08,92.68,92.68,0,0,1,87,9.53a112.46,112.46,0,0,1,26.38,0C146.75,14.56,174.1,37.16,186,69.54A91.14,91.14,0,0,1,177.84,148a92.47,92.47,0,0,1-37.63,33.82,85.44,85.44,0,0,1-40.75,9.41,119.9,119.9,0,0,1-12.92-.73ZM114,178.79c37.73-6.11,65.94-39.74,66-78.68,0-26.48-11.76-49.7-33-65C132.85,25,112.48,18.93,96.21,20,70.6,21.78,50.73,32.29,36,51.9c-18.09,24-21,57.43-7.49,84.41,11.62,23.1,35.29,39.84,60.74,42.95a80.23,80.23,0,0,0,24.75-.47Z"/></g></g></g><path id="path823" class="cls-3" d="M91,171.08c-30.88-4.29-54.83-26.86-61.26-57.74A84.73,84.73,0,0,1,29,91.27c4-31.64,28.18-56.63,60.05-62,6.15-1,20.07-.75,25.71.52C142.87,36.14,164,57.7,170.28,86.59c1.31,6,1.32,21.46,0,27.48A69.91,69.91,0,0,1,164,131.84c-9.66,19.49-29.22,34.24-51.1,38.51C108,171.31,95.59,171.72,91,171.08Zm-12.5-72v-41l-12.87.13-12.86.13-2.36,6.5C49.08,68.42,48,71.51,48,71.72s3.35.37,7.47.37H63v68h15.5Zm67,31.78v-9.23l4.12-.14,4.11-.15,2.11-6c1.16-3.3,2.12-6.28,2.14-6.62s-1.54-.63-6.23-.63h-6.25V86.59h-15v21.5H119.91c-9.82,0-10.54-.06-10.31-.87.14-.48,4.8-11.45,10.36-24.38s10.22-23.78,10.36-24.14-1.48-.6-8.12-.5l-8.38.14L102.9,84.09,92,109.84v5.88l0,5.87h38.5v18.5h15Z"/></g></g><g id="Layer_18" data-name="Layer 18"><circle id="path2982" class="cls-4" cx="237" cy="100" r="99.9"/><g id="g7"><path id="path2987" class="cls-3" d="M187.4,105.72V63.22h-9c-6.1,0-9-.2-9-.5s1.1-4,2.5-8.3l2.5-7.7h32v101.5h-19Z"/><path id="path2987-2" data-name="path2987" class="cls-3" d="M258.1,152.82a50.44,50.44,0,0,1-27.7-11.9l-2.5-2.2,6-6c3.3-3.3,6.1-6,6.2-6a21.52,21.52,0,0,1,2.9,2c14.9,11.2,36.2,8.9,41.2-4.3,1.4-3.8,1.2-10.4-.4-13.8-3.4-7-12.1-10.9-21.3-9.6a32.51,32.51,0,0,0-12,4.3l-1.9,1.2-7.1-.8c-3.9-.5-7.2-.9-7.2-1-.2-.2,2.3-54.3,2.6-56.3l.2-1.6h65.6l-2.8,8.1L297.1,63l-22.3.1-22.3.1-.3,3c-.6,6.2-1.3,21.3-1,21.6s1.4-.2,2.8-.8c6.9-2.8,17.8-3.7,24.8-1.8,12.3,3.2,21.4,11.3,25,22.2,1,3,1.2,4.5,1.2,9.9,0,5.7-.1,6.7-1.4,10.6-4.4,13.6-16.7,23.1-32.4,25a52.38,52.38,0,0,1-13.1-.1Z"/></g></g></g></svg>