<svg xmlns="http://www.w3.org/2000/svg" viewBox="0 0 434.73 200"><defs><style>.cls-1{fill:#ee2722;}.cls-2{fill:#231f20;}.cls-3{fill:#fff;}.cls-4{fill:#e74182;}</style></defs><title>Asset 42</title><g id="Layer_2" data-name="Layer 2"><g id="Layer_17" data-name="Layer 17"><g id="layer1"><g id="g2998"><g id="g658"><path id="path660-3" class="cls-1" d="M99.91,200C159,200,200,151.11,200,99.91,200,41.13,151.13,0,99.91,0,41,0,0,49.05,0,99.91,0,159,49.05,200,99.91,200m0-8.27c-53.72,0-91.64-44.38-91.64-91.82,0-53.38,43.84-91.66,91.64-91.66,53.72,0,91.84,44.4,91.84,91.66,0,53.36-43.68,91.82-91.84,91.82M20.12,100.09c0,46.73,38.28,79.79,79.79,79.79,47.8,0,80-39.35,80-79.79,0-48.53-39.89-80-80-80-47.26,0-79.79,38.82-79.79,80m79.79,71.7c-42,0-71.72-35.06-71.72-71.7,0-42.77,35.6-71.9,71.72-71.9,42.77,0,71.88,35.77,71.88,71.9,0,42-35.4,71.7-71.88,71.7"/></g><g id="g662"><path id="path664" class="cls-2" d="M63.07,139.8h15.1V58.21H53L48.17,71.68h14.9Zm29.11-18.5h38.28v18.5h14.92V121.3h8.09L158,108.54H145.38V86.78H130.46v21.76H108.71L130.3,58.21H114.1L92.18,110Z"/></g><g id="g2994"><g id="g2991"><path id="path2989" class="cls-3" d="M86.54,190.5a98.61,98.61,0,0,1-19-5C37,174.17,14.19,145.39,9.41,112c-.94-6.58-.83-19.91.22-26.13A90.59,90.59,0,0,1,22.09,52.08,92.68,92.68,0,0,1,87,9.53a112.46,112.46,0,0,1,26.38,0C146.75,14.56,174.1,37.16,186,69.54A91.14,91.14,0,0,1,177.84,148a92.47,92.47,0,0,1-37.63,33.82,85.44,85.44,0,0,1-40.75,9.41,119.9,119.9,0,0,1-12.92-.73ZM114,178.79c37.73-6.11,65.94-39.74,66-78.68,0-26.48-11.76-49.7-33-65C132.85,25,112.48,18.93,96.21,20,70.6,21.78,50.73,32.29,36,51.9c-18.09,24-21,57.43-7.49,84.41,11.62,23.1,35.29,39.84,60.74,42.95a80.23,80.23,0,0,0,24.75-.47Z"/></g></g></g><path id="path823" class="cls-3" d="M91,171.08c-30.88-4.29-54.83-26.86-61.26-57.74A84.73,84.73,0,0,1,29,91.27c4-31.64,28.18-56.63,60.05-62,6.15-1,20.07-.75,25.71.52C142.87,36.14,164,57.7,170.28,86.59c1.31,6,1.32,21.46,0,27.48A69.91,69.91,0,0,1,164,131.84c-9.66,19.49-29.22,34.24-51.1,38.51C108,171.31,95.59,171.72,91,171.08Zm-12.5-72v-41l-12.87.13-12.86.13-2.36,6.5C49.08,68.42,48,71.51,48,71.72s3.35.37,7.47.37H63v68h15.5Zm67,31.78v-9.23l4.12-.14,4.11-.15,2.11-6c1.16-3.3,2.12-6.28,2.14-6.62s-1.54-.63-6.23-.63h-6.25V86.59h-15v21.5H119.91c-9.82,0-10.54-.06-10.31-.87.14-.48,4.8-11.45,10.36-24.38s10.22-23.78,10.36-24.14-1.48-.6-8.12-.5l-8.38.14L102.9,84.09,92,109.84v5.88l0,5.87h38.5v18.5h15Z"/></g></g><g id="Layer_21" data-name="Layer 21"><path class="cls-4" d="M182.6,28.5a4.92,4.92,0,0,1,4.7-3.5H429.8a4.93,4.93,0,0,1,4.7,6.4L389.4,171.5a4.92,4.92,0,0,1-4.7,3.5H142.2a4.93,4.93,0,0,1-4.7-6.4Z"/><path class="cls-3" d="M278.3,66h0c-8.9-9.3-21.1-13.8-36.3-13.8H200.3l-4.2,16.1h13.8v81H242c15.2,0,27.4-4.5,36.3-13.6h0c8.8-9.2,13.1-20.8,13.1-34.8S287.1,75.2,278.3,66ZM273,100.8c0,11.2-3.1,19.1-9,24.4s-13.5,8.1-22.8,8.1H227.9V68.5h13.3c9.4,0,17,2.7,22.8,8.2h0C269.9,82,273,89.9,273,100.8Z"/><path class="cls-3" d="M333.2,133l15.4-15.1h0c7.2-7.1,12.9-13.4,16.9-19h0a33.18,33.18,0,0,0,6.2-19.1c0-7.4-2.9-14.3-8.6-20.1h0c-5.8-6.1-14.1-9-24.4-9a43.64,43.64,0,0,0-20,4.7c-5.8,3.1-10.5,6.3-13.8,9.8h0l-1.4,1.5L315,78.2l1.5-1.4a41.84,41.84,0,0,1,9.8-6.6h0a25.62,25.62,0,0,1,12.4-3.1,15.58,15.58,0,0,1,10.8,3.7,12.39,12.39,0,0,1,4.2,9.7c0,3.7-1.4,7.6-4.3,11.8h0c-3,4.2-8.8,10.8-17.5,19.5h0l-24.3,24v13.5h63.6l6-16.4C377.2,133,333.2,133,333.2,133Z"/></g></g></svg>