<svg xmlns="http://www.w3.org/2000/svg" viewBox="0 0 337 200.21"><defs><style>.cls-1{fill:#2dbe2c;}.cls-2{fill:#fff;}.cls-3{fill:#82c0c0;}</style></defs><title>Asset 5</title><g id="Layer_2" data-name="Layer 2"><g id="Layer_2-2" data-name="Layer 2"><g id="layer1"><g id="g304"><g id="g3026"><path id="path306" class="cls-1" d="M0,100.22A100,100,0,1,0,100,.23a99.9,99.9,0,0,0-100,100m66.73,50.4V136.36l25.62-26c19.63-19,23-24.38,23-31.39,0-9.1-7.46-14.49-17-14.49C90.48,64.46,81.79,68.6,75,75L62.8,62.62c8.48-8.89,22.74-15.51,36.58-15.51,22.31,0,35.11,13.44,35.11,29.36,0,14-7.23,23.75-24.79,39.85L91.94,133.06v.43h46.69L133,150.62Z"/></g></g><path id="path2987" class="cls-2" d="M67,143.44v-6.88l20.61-21C108.71,94,111.34,91.09,113.74,86.31c3.11-6.18,2-13.4-2.85-17.72C103.33,61.8,90,63.17,78.24,71.94l-3.37,2.52L69,68.6l-5.83-5.86L66,60.15c5.55-5.08,15-9.8,23.65-11.72,5.41-1.21,16-1.06,21,.31,11.87,3.19,20.23,11,22.73,21.32a39.57,39.57,0,0,1-.23,14.5c-2.63,10.1-8,16.82-28.68,36.24-7.19,6.73-13.07,12.41-13.07,12.62s10.47.39,23.25.39,23.25.15,23.25.32-1.13,3.89-2.52,8.25l-2.52,7.93H67l0-6.87Z"/><path id="path3009" class="cls-2" d="M66.88,143.5v-7l19.19-19.46c22.58-22.91,25.82-26.58,28.21-32,.75-1.69.86-2.47.86-6,0-3.75-.08-4.22-1-6.1a12,12,0,0,0-5-5.63,20.69,20.69,0,0,0-14-2.77A40.3,40.3,0,0,0,84.56,68a74.29,74.29,0,0,0-8.31,5.61l-1.29,1-6-6-6-6L64.84,61A55.49,55.49,0,0,1,92,47.93a67.48,67.48,0,0,1,15.56,0c11.22,2,19.67,7.86,23.88,16.48,4.32,8.87,3.71,19.7-1.64,28.86-4,7-8.23,11.54-24.74,27.14-7.28,6.88-13.29,12.65-13.35,12.82s10.39.3,23.24.3,23.37.11,23.37.24-1.23,3.95-2.73,8.48l-2.72,8.25h-66Z"/><g id="g3023"><path id="path3021" class="cls-2" d="M67.07,143.31v-7l17.41-17.64C108,94.8,111.53,90.87,114,85.64c.84-1.77.93-2.35.94-6.37,0-4.3,0-4.49-1.15-6.79-1.81-3.68-5.29-6.21-10.35-7.54-3.32-.87-9.06-.55-13.06.72a43.21,43.21,0,0,0-12.35,6.58L74.94,74.6l-6-6-6-6,1.59-1.41A55,55,0,0,1,89.75,48.33a68.35,68.35,0,0,1,16.33-.55c11.64,1.55,21,7.62,25.3,16.43,2.24,4.56,2.68,6.66,2.67,12.77,0,6.32-.69,9.29-3.35,14.51-3.6,7.08-8.36,12.58-21.94,25.41-13.21,12.48-17,16.19-16.74,16.43s10.54.27,23.16.33,23,.23,23,.36-1.14,3.85-2.56,8.26l-2.58,8H67.07v-7Z"/></g></g></g><g id="Layer_14" data-name="Layer 14"><g id="layer1-2" data-name="layer1"><g id="g2991"><g id="g528"><path id="path530" class="cls-3" d="M236.79,200.21a100.11,100.11,0,1,0-99.79-100,99.72,99.72,0,0,0,99.79,100M198.7,150.72V65.42H180.26l6.23-17h31.68V150.72Zm60.48,0V65.42H241.35l5.18-17h32.3V150.72Z"/></g><path id="path2987-2" data-name="path2987" class="cls-2" d="M199,107.75V65h-9c-5,0-9-.14-9-.31s1.3-3.89,2.88-8.25l2.87-7.94H218v102H199V107.75Z"/><path id="path2989" class="cls-2" d="M259.46,107.75V65h-8.75c-4.81,0-8.74-.17-8.74-.38s1.08-3.86,2.39-8.12l2.38-7.75,15.86-.13,15.86-.14v102h-19Z"/></g></g></g></g></svg>