<svg xmlns="http://www.w3.org/2000/svg" viewBox="0 0 337 200.02"><defs><style>.cls-1{fill:#2dbe2c;}.cls-2{fill:#fff;}.cls-3{fill:#ee2722;}.cls-4{fill:#231f20;}</style></defs><title>Asset 6</title><g id="Layer_2" data-name="Layer 2"><g id="Layer_2-2" data-name="Layer 2"><g id="layer1"><g id="g304"><g id="g3026"><path id="path306" class="cls-1" d="M0,100.22A100,100,0,1,0,100,.23a99.9,99.9,0,0,0-100,100m66.73,50.4V136.36l25.62-26c19.63-19,23-24.38,23-31.39,0-9.1-7.46-14.49-17-14.49C90.48,64.46,81.79,68.6,75,75L62.8,62.62c8.48-8.89,22.74-15.51,36.58-15.51,22.31,0,35.11,13.44,35.11,29.36,0,14-7.23,23.75-24.79,39.85L91.94,133.06v.43h46.69L133,150.62Z"/></g></g><path id="path2987" class="cls-2" d="M67,143.44v-6.88l20.61-21C108.71,94,111.34,91.09,113.74,86.31c3.11-6.18,2-13.4-2.85-17.72C103.33,61.8,90,63.17,78.24,71.94l-3.37,2.52L69,68.6l-5.83-5.86L66,60.15c5.55-5.08,15-9.8,23.65-11.72,5.41-1.21,16-1.06,21,.31,11.87,3.19,20.23,11,22.73,21.32a39.57,39.57,0,0,1-.23,14.5c-2.63,10.1-8,16.82-28.68,36.24-7.19,6.73-13.07,12.41-13.07,12.62s10.47.39,23.25.39,23.25.15,23.25.32-1.13,3.89-2.52,8.25l-2.52,7.93H67l0-6.87Z"/><path id="path3009" class="cls-2" d="M66.88,143.5v-7l19.19-19.46c22.58-22.91,25.82-26.58,28.21-32,.75-1.69.86-2.47.86-6,0-3.75-.08-4.22-1-6.1a12,12,0,0,0-5-5.63,20.69,20.69,0,0,0-14-2.77A40.3,40.3,0,0,0,84.56,68a74.29,74.29,0,0,0-8.31,5.61l-1.29,1-6-6-6-6L64.84,61A55.49,55.49,0,0,1,92,47.93a67.48,67.48,0,0,1,15.56,0c11.22,2,19.67,7.86,23.88,16.48,4.32,8.87,3.71,19.7-1.64,28.86-4,7-8.23,11.54-24.74,27.14-7.28,6.88-13.29,12.65-13.35,12.82s10.39.3,23.24.3,23.37.11,23.37.24-1.23,3.95-2.73,8.48l-2.72,8.25h-66Z"/><g id="g3023"><path id="path3021" class="cls-2" d="M67.07,143.31v-7l17.41-17.64C108,94.8,111.53,90.87,114,85.64c.84-1.77.93-2.35.94-6.37,0-4.3,0-4.49-1.15-6.79-1.81-3.68-5.29-6.21-10.35-7.54-3.32-.87-9.06-.55-13.06.72a43.21,43.21,0,0,0-12.35,6.58L74.94,74.6l-6-6-6-6,1.59-1.41A55,55,0,0,1,89.75,48.33a68.35,68.35,0,0,1,16.33-.55c11.64,1.55,21,7.62,25.3,16.43,2.24,4.56,2.68,6.66,2.67,12.77,0,6.32-.69,9.29-3.35,14.51-3.6,7.08-8.36,12.58-21.94,25.41-13.21,12.48-17,16.19-16.74,16.43s10.54.27,23.16.33,23,.23,23,.36-1.14,3.85-2.56,8.26l-2.58,8H67.07v-7Z"/></g></g></g><g id="Layer_17" data-name="Layer 17"><g id="layer1-2" data-name="layer1"><g id="g2998"><g id="g658"><path id="path660-3" class="cls-3" d="M236.91,200C296,200,337,151.11,337,99.91,337,41.13,288.13,0,236.91,0,178,0,137,49.05,137,99.91,137,159,186.05,200,236.91,200m0-8.27c-53.72,0-91.64-44.38-91.64-91.82,0-53.38,43.84-91.66,91.64-91.66,53.72,0,91.84,44.4,91.84,91.66,0,53.36-43.68,91.82-91.84,91.82m-79.79-91.64c0,46.73,38.28,79.79,79.79,79.79,47.8,0,80-39.35,80-79.79,0-48.53-39.89-80-80-80-47.26,0-79.79,38.82-79.79,80m79.79,71.7c-42,0-71.72-35.06-71.72-71.7,0-42.77,35.6-71.9,71.72-71.9,42.77,0,71.88,35.77,71.88,71.9,0,42-35.4,71.7-71.88,71.7"/></g><g id="g662"><path id="path664" class="cls-4" d="M200.07,139.8h15.1V58.21H190l-4.83,13.47h14.9Zm29.11-18.5h38.28v18.5h14.92V121.3h8.09L295,108.54H282.38V86.78H267.46v21.76H245.71L267.3,58.21H251.1L229.18,110Z"/></g><g id="g2994"><g id="g2991"><path id="path2989" class="cls-2" d="M223.54,190.5a98.61,98.61,0,0,1-19-5C174,174.17,151.19,145.39,146.41,112c-.94-6.58-.83-19.91.22-26.13a90.59,90.59,0,0,1,12.46-33.83A92.68,92.68,0,0,1,224,9.53a112.46,112.46,0,0,1,26.38,0C283.75,14.56,311.1,37.16,323,69.54A91.14,91.14,0,0,1,314.84,148a92.47,92.47,0,0,1-37.63,33.82,85.44,85.44,0,0,1-40.75,9.41,119.9,119.9,0,0,1-12.92-.73ZM251,178.79c37.73-6.11,65.94-39.74,66-78.68,0-26.48-11.76-49.7-33-65C269.85,25,249.48,18.93,233.21,20,207.6,21.78,187.73,32.29,173,51.9c-18.09,24-21.05,57.43-7.49,84.41,11.62,23.1,35.29,39.84,60.74,42.95a80.23,80.23,0,0,0,24.75-.47Z"/></g></g></g><path id="path823" class="cls-2" d="M228,171.08c-30.88-4.29-54.83-26.86-61.26-57.74A84.73,84.73,0,0,1,166,91.27c4-31.64,28.18-56.63,60.05-62,6.15-1,20.07-.75,25.71.52C279.87,36.14,301,57.7,307.28,86.59c1.31,6,1.32,21.46,0,27.48A69.91,69.91,0,0,1,301,131.84c-9.66,19.49-29.22,34.24-51.1,38.51C245,171.31,232.59,171.72,228,171.08Zm-12.5-72v-41l-12.87.13-12.86.13-2.36,6.5c-1.29,3.58-2.36,6.67-2.38,6.88s3.35.37,7.47.37H200v68h15.5Zm67,31.78v-9.23l4.12-.14,4.11-.15,2.11-6c1.16-3.3,2.12-6.28,2.14-6.62s-1.54-.63-6.23-.63h-6.25V86.59h-15v21.5H256.91c-9.82,0-10.54-.06-10.31-.87.14-.48,4.8-11.45,10.36-24.38s10.22-23.78,10.36-24.14-1.48-.6-8.12-.5l-8.38.14L239.9,84.09,229,109.84v5.88l0,5.87h38.5v18.5h15Z"/></g></g></g></svg>