<svg xmlns="http://www.w3.org/2000/svg" viewBox="0 0 434.73 199.8"><defs><style>.cls-1{fill:#2dbe2c;}.cls-2{fill:#fff;}.cls-3{fill:#e74182;}</style></defs><title>Asset 8</title><g id="Layer_2" data-name="Layer 2"><g id="Layer_2-2" data-name="Layer 2"><g id="layer1"><g id="g304"><g id="g3026"><path id="path306" class="cls-1" d="M0,100A100,100,0,1,0,100,0,99.9,99.9,0,0,0,0,100m66.73,50.4V136.13l25.62-26c19.63-19,23-24.38,23-31.39,0-9.1-7.46-14.48-17-14.48-7.87,0-16.56,4.13-23.36,10.55L62.8,62.39c8.48-8.89,22.74-15.51,36.58-15.51,22.31,0,35.11,13.44,35.11,29.36,0,14-7.23,23.75-24.79,39.85L91.94,132.83v.44h46.69L133,150.39Z"/></g></g><path id="path2987" class="cls-2" d="M67,143.21v-6.87l20.61-21c21.11-21.53,23.74-24.46,26.14-29.23,3.11-6.19,2-13.41-2.85-17.73-7.56-6.79-20.94-5.42-32.65,3.36l-3.37,2.52L69,68.38l-5.83-5.86L66,59.93c5.55-5.09,15-9.8,23.65-11.73,5.41-1.21,16-1.05,21,.31,11.87,3.19,20.23,11,22.73,21.33a39.57,39.57,0,0,1-.23,14.5c-2.63,10.09-8,16.81-28.68,36.23C97.34,127.3,91.46,133,91.46,133.2s10.47.39,23.25.39,23.25.14,23.25.31-1.13,3.89-2.52,8.25l-2.52,7.94H67l0-6.88Z"/><path id="path3009" class="cls-2" d="M66.88,143.28v-7l19.19-19.46c22.58-22.9,25.82-26.57,28.21-31.95.75-1.7.86-2.47.86-6,0-3.75-.08-4.23-1-6.11a12,12,0,0,0-5-5.63,20.63,20.63,0,0,0-14-2.76,39.91,39.91,0,0,0-10.62,3.37,73.15,73.15,0,0,0-8.31,5.62l-1.29,1-6-6-6-6,1.86-1.67A55.58,55.58,0,0,1,92,47.7a67.48,67.48,0,0,1,15.56,0c11.22,2,19.67,7.87,23.88,16.48,4.32,8.87,3.71,19.7-1.64,28.86-4,7-8.23,11.54-24.74,27.14-7.28,6.89-13.29,12.65-13.35,12.82s10.39.3,23.24.3,23.37.11,23.37.24-1.23,4-2.73,8.49l-2.72,8.24h-66Z"/><g id="g3023"><path id="path3021" class="cls-2" d="M67.07,143.09v-7l17.41-17.64C108,94.57,111.53,90.65,114,85.41c.84-1.77.93-2.34.94-6.37,0-4.3,0-4.49-1.15-6.79-1.81-3.67-5.29-6.21-10.35-7.54-3.32-.86-9.06-.55-13.06.72A43.21,43.21,0,0,0,78.05,72l-3.11,2.37-6-6-6-6L64.59,61A55,55,0,0,1,89.75,48.1a68.35,68.35,0,0,1,16.33-.55c11.64,1.55,21,7.62,25.3,16.43,2.24,4.56,2.68,6.66,2.67,12.77,0,6.33-.69,9.29-3.35,14.51-3.6,7.08-8.36,12.58-21.94,25.41-13.21,12.48-17,16.19-16.74,16.44s10.54.26,23.16.33,23,.22,23,.35-1.14,3.85-2.56,8.27l-2.58,8H67.07v-7Z"/></g></g></g><g id="Layer_21" data-name="Layer 21"><path class="cls-3" d="M182.6,28.27a4.92,4.92,0,0,1,4.7-3.5H429.8a4.93,4.93,0,0,1,4.7,6.4l-45.1,140.1a4.92,4.92,0,0,1-4.7,3.5H142.2a4.93,4.93,0,0,1-4.7-6.4Z"/><path class="cls-2" d="M278.3,63.77h0C269.4,54.47,257.2,50,242,50H200.3l-4.2,16.1h13.8v81H242c15.2,0,27.4-4.5,36.3-13.6h0c8.8-9.2,13.1-20.8,13.1-34.8s-4.3-25.7-13.1-34.9ZM273,98.57c0,11.2-3.1,19.1-9,24.4s-13.5,8.1-22.8,8.1H227.9V66.27h13.3c9.4,0,17,2.7,22.8,8.2h0C269.9,79.77,273,87.67,273,98.57Z"/><path class="cls-2" d="M333.2,130.77l15.4-15.1h0c7.2-7.1,12.9-13.4,16.9-19h0a33.18,33.18,0,0,0,6.2-19.1c0-7.4-2.9-14.3-8.6-20.1h0c-5.8-6.1-14.1-9-24.4-9a43.64,43.64,0,0,0-20,4.7c-5.8,3.1-10.5,6.3-13.8,9.8h0l-1.4,1.5L315,76l1.5-1.4a41.84,41.84,0,0,1,9.8-6.6h0a25.62,25.62,0,0,1,12.4-3.1,15.58,15.58,0,0,1,10.8,3.7,12.39,12.39,0,0,1,4.2,9.7c0,3.7-1.4,7.6-4.3,11.8h0c-3,4.2-8.8,10.8-17.5,19.5h0l-24.3,24v13.5h63.6l6-16.4C377.2,130.77,333.2,130.77,333.2,130.77Z"/></g></g></svg>