<?xml version="1.0" encoding="UTF-8" standalone="no"?>
<!-- Created with Inkscape (http://www.inkscape.org/) -->

<svg
   xmlns:dc="http://purl.org/dc/elements/1.1/"
   xmlns:cc="http://creativecommons.org/ns#"
   xmlns:rdf="http://www.w3.org/1999/02/22-rdf-syntax-ns#"
   xmlns:svg="http://www.w3.org/2000/svg"
   xmlns="http://www.w3.org/2000/svg"
   xmlns:sodipodi="http://sodipodi.sourceforge.net/DTD/sodipodi-0.dtd"
   xmlns:inkscape="http://www.inkscape.org/namespaces/inkscape"
   width="200"
   height="199.7951"
   id="svg147969"
   version="1.1"
   inkscape:version="0.92.2 (5c3e80d, 2017-08-06)"
   sodipodi:docname="Moskwa_Metro_Line_2.svg">
  <defs
     id="defs147971" />
  <sodipodi:namedview
     id="base"
     pagecolor="#ffffff"
     bordercolor="#666666"
     borderopacity="1.0"
     inkscape:pageopacity="0.0"
     inkscape:pageshadow="2"
     inkscape:zoom="2.4251554"
     inkscape:cx="34.252076"
     inkscape:cy="145.25649"
     inkscape:current-layer="layer1"
     inkscape:document-units="px"
     showgrid="false"
     showguides="true"
     inkscape:guide-bbox="true"
     inkscape:snap-bbox="true"
     inkscape:bbox-nodes="true"
     inkscape:bbox-paths="true"
     inkscape:snap-bbox-midpoints="true"
     inkscape:snap-bbox-edge-midpoints="true"
     fit-margin-top="0"
     fit-margin-left="0"
     fit-margin-right="0"
     fit-margin-bottom="0"
     inkscape:window-width="1920"
     inkscape:window-height="1027"
     inkscape:window-x="-8"
     inkscape:window-y="-8"
     inkscape:window-maximized="1">
    <sodipodi:guide
       orientation="1,0"
       position="0,-8.4852776"
       id="guide148130"
       inkscape:locked="false" />
    <sodipodi:guide
       orientation="0,1"
       position="270.11479,3.9086481e-006"
       id="guide148132"
       inkscape:locked="false" />
    <sodipodi:guide
       orientation="1,0"
       position="200,3.9086481e-006"
       id="guide148134"
       inkscape:locked="false" />
  </sodipodi:namedview>
  <metadata
     id="metadata147974">
    <rdf:RDF>
      <cc:Work
         rdf:about="">
        <dc:format>image/svg+xml</dc:format>
        <dc:type
           rdf:resource="http://purl.org/dc/dcmitype/StillImage" />
        <dc:title></dc:title>
      </cc:Work>
    </rdf:RDF>
  </metadata>
  <g
     id="layer1"
     inkscape:label="Layer 1"
     inkscape:groupmode="layer"
     transform="translate(-1.0234375,1.4324245)">
    <g
       id="g304"
       transform="matrix(20.489704,0,0,-20.489704,1.0234375,98.557331)">
      <g
         id="g3026">
        <path
           id="path306"
           style="fill:#2dbe2c;fill-opacity:1;fill-rule:nonzero;stroke:none"
           d="m 0,0 c 0,-2.693 2.188,-4.871 4.88,-4.871 2.692,0 4.881,2.178 4.881,4.871 0,2.693 -2.189,4.88 -4.881,4.88 C 2.188,4.88 0,2.693 0,0 m 3.257,-2.46 0,0.696 1.25,1.27 c 0.958,0.927 1.12,1.19 1.12,1.532 C 5.627,1.482 5.263,1.745 4.8,1.745 4.416,1.745 3.992,1.543 3.66,1.23 L 3.065,1.835 C 3.479,2.269 4.175,2.592 4.85,2.592 5.939,2.592 6.564,1.936 6.564,1.159 6.564,0.474 6.211,0 5.354,-0.786 l -0.867,-0.817 0,-0.021 2.279,0 -0.273,-0.836 -3.236,0 z"
           inkscape:connector-curvature="0" />
      </g>
    </g>
    <path
       style="fill:#ffffff;fill-opacity:1"
       d="m 66.976126,143.21208 0.01139,-6.875 20.613614,-21.0184 C 108.71304,93.792184 111.33548,90.859129 113.73697,86.087084 c 3.11368,-6.187242 1.95343,-13.406271 -2.84858,-17.72369 -7.55766,-6.794983 -20.935303,-5.42133 -32.651349,3.35273 l -3.366669,2.521273 -5.827816,-5.859726 -5.827816,-5.859727 2.823746,-2.59043 c 5.547114,-5.088776 15.055256,-9.801816 23.653487,-11.724671 5.411305,-1.210151 15.953677,-1.055911 21.022767,0.307572 11.86219,3.190691 20.22794,11.040365 22.72879,21.326669 0.8324,3.423767 0.71166,10.868495 -0.23517,14.5 -2.63272,10.097678 -7.95004,16.815226 -28.68197,36.234886 -7.183907,6.72919 -13.06165,12.41044 -13.06165,12.625 0,0.21456 10.4625,0.39011 23.25,0.39011 12.7875,0 23.25,0.1429 23.25,0.31754 0,0.17465 -1.13466,3.88715 -2.52147,8.25 l -2.52147,7.93246 -32.97853,0 -32.97853,0 0.01139,-6.875 z"
       id="path2987"
       inkscape:connector-curvature="0"
       transform="translate(1.0234375,-1.4324245)" />
    <path
       style="fill:#ffffff;fill-opacity:1"
       d="m 66.877375,143.27667 0,-6.99622 19.191359,-19.46173 C 108.65243,93.916868 111.8913,90.247861 114.2759,84.865502 c 0.75031,-1.693545 0.86151,-2.469355 0.86151,-6.010407 0,-3.748436 -0.0782,-4.225182 -1.0016,-6.106533 -1.33958,-2.729247 -2.46843,-4.005344 -4.97804,-5.627383 -3.83766,-2.4804 -8.83569,-3.468335 -13.981877,-2.763724 -3.001052,0.410901 -7.835567,1.945564 -10.620848,3.371471 -1.659794,0.84972 -6.08006,3.840678 -8.302826,5.61808 l -1.2914,1.032648 -5.988538,-5.980765 -5.988538,-5.980765 1.858428,-1.665097 c 7.418959,-6.64717 17.121575,-11.312989 27.137495,-13.049948 3.482982,-0.604019 12.209804,-0.603725 15.556344,5.24e-4 11.22074,2.026003 19.67693,7.861434 23.87997,16.479026 4.32622,8.870165 3.71428,19.696092 -1.63143,28.861443 -4.05455,6.951641 -8.23791,11.540528 -24.74174,27.140168 -7.281956,6.883 -13.292954,12.65034 -13.357772,12.81631 -0.06482,0.16597 10.395942,0.30177 23.246132,0.30177 12.8502,0 23.36399,0.10753 23.36399,0.23895 0,0.13142 -1.22431,3.9498 -2.72067,8.48528 l -2.72068,8.24633 -32.988217,0 -32.988218,0 0,-6.99621 z"
       id="path3009"
       inkscape:connector-curvature="0"
       transform="translate(1.0234375,-1.4324245)" />
    <g
       id="g3023">
      <path
         transform="translate(1.0234375,-1.4324245)"
         inkscape:connector-curvature="0"
         id="path3021"
         d="m 67.06764,143.08712 0,-7.02453 17.412504,-17.64129 C 108.02269,94.569433 111.53382,90.646274 114.02324,85.411389 c 0.84129,-1.769117 0.92589,-2.343765 0.9378,-6.369755 0.0127,-4.301573 -0.0194,-4.491312 -1.15081,-6.791063 -1.8076,-3.674293 -5.29021,-6.20885 -10.35486,-7.535999 -3.31507,-0.868684 -9.052051,-0.553241 -13.053207,0.71772 -3.999703,1.2705 -8.542858,3.691666 -12.347925,6.580535 l -3.113749,2.36401 -5.969356,-5.997131 -5.969357,-5.997131 1.59099,-1.413777 c 7.325494,-6.50954 15.52784,-10.704882 25.155302,-12.866453 3.438027,-0.77191 12.395962,-1.072336 16.336892,-0.547897 11.63406,1.548206 20.97284,7.613694 25.29729,16.430469 2.23482,4.556386 2.67283,6.653333 2.66621,12.764414 -0.007,6.327945 -0.69051,9.289379 -3.35079,14.514498 -3.60235,7.075502 -8.35392,12.579091 -21.93416,25.405641 -13.214516,12.48114 -16.992891,16.19013 -16.745351,16.43789 0.115687,0.11578 10.538601,0.26412 23.162031,0.32965 12.62342,0.0655 22.96149,0.22462 22.97347,0.35355 0.012,0.12893 -1.14149,3.84898 -2.56326,8.26677 l -2.58505,8.03235 -32.96886,0.011 -32.96885,0.011 0,-7.02454 z"
         style="fill:#ffffff;fill-opacity:1" />
    </g>
  </g>
</svg>
