<svg xmlns="http://www.w3.org/2000/svg" viewBox="0 0 576.73 200.21"><defs><style>.cls-1{fill:#0078be;}.cls-2{fill:#fff;}.cls-3{fill:#82c0c0;}.cls-4{fill:#e95b0c;}</style></defs><title>Asset 18</title><g id="Layer_2" data-name="Layer 2"><g id="Layer_5" data-name="Layer 5"><g id="layer1"><g id="g326"><g id="g2999"><g id="g2996"><g id="g3003"><path id="path328" class="cls-1" d="M0,100.4A100,100,0,1,0,100,.41,99.78,99.78,0,0,0,0,100.4M74.58,125c7.44,7,15.29,9.71,22.75,9.71,11.35,0,19.81-6.8,19.81-16.13,0-11.37-10.94-16.31-21.49-16.31-3.71,0-7.24,0-9.49,1v-13l24.36-24.59H68.6V49h66.3V61.14L109.09,87c14.46,2.68,28.5,13.62,28.5,31.59,0,19.43-18.38,34.3-39,34.3-13.86,0-27.89-5.59-36.8-14.87Z"/></g></g></g></g><g id="g2992"><g id="g2989"><path id="path2987" class="cls-2" d="M90.21,152A57.9,57.9,0,0,1,66.86,142c-5.32-4-5.44-3.23,1.6-10.29l6.17-6.18,2.79,2.12c4.13,3.14,5.89,4.1,10.06,5.49a27.79,27.79,0,0,0,14,1.31c6.86-1.16,11.69-4.3,14.19-9.23a16.19,16.19,0,0,0,.44-12.84c-2.17-4.73-7.25-8.25-13.92-9.67-3.87-.81-11-1-13.87-.29l-1.88.43V90.24l12-12c6.6-6.6,12-12.17,12-12.37s-9.33-.38-20.75-.38H69V49h65.5V61.25L121.71,74C114.7,81,109,86.91,109,87.12s.36.38.79.38c1.74,0,8.67,2.68,12,4.62,5.06,3,10.12,8.26,12.35,12.88a27.13,27.13,0,0,1,3.11,13.75c-.12,15.85-12.47,29.27-30.33,33a59.61,59.61,0,0,1-16.62.25Z"/></g></g></g></g><g id="Layer_14" data-name="Layer 14"><g id="layer1-2" data-name="layer1"><g id="g2991"><g id="g528"><path id="path530" class="cls-3" d="M236.79,200.21a100.11,100.11,0,1,0-99.79-100,99.72,99.72,0,0,0,99.79,100M198.7,150.72V65.42H180.26l6.23-17h31.68V150.72Zm60.48,0V65.42H241.35l5.18-17h32.3V150.72Z"/></g><path id="path2987-2" data-name="path2987" class="cls-2" d="M199,107.75V65h-9c-5,0-9-.14-9-.31s1.3-3.89,2.88-8.25l2.87-7.94H218v102H199V107.75Z"/><path id="path2989" class="cls-2" d="M259.46,107.75V65h-8.75c-4.81,0-8.74-.17-8.74-.38s1.08-3.86,2.39-8.12l2.38-7.75,15.86-.13,15.86-.14v102h-19Z"/></g></g></g><g id="Layer_20" data-name="Layer 20"><path class="cls-4" d="M324.6,27.33a4.92,4.92,0,0,1,4.7-3.5H571.8a4.93,4.93,0,0,1,4.7,6.4l-45.1,140.1a4.92,4.92,0,0,1-4.7,3.5H284.2a4.93,4.93,0,0,1-4.7-6.4Z"/><path class="cls-2" d="M508.7,95.23h0a31,31,0,0,0-16.5-9l22.9-22.9V49.53H451.8V66h40.5l-23.8,23.8v11.7l2.5-.4c1.1-.1,2.2-.2,3.5-.4a22,22,0,0,1,3.6-.1c6.1,0,11,1.4,15.1,4.2,3.8,2.6,5.8,6.3,5.8,11.4a13.59,13.59,0,0,1-5.3,11.4h0a19.79,19.79,0,0,1-13,4.3,29.72,29.72,0,0,1-11.9-2.2,35,35,0,0,1-9.9-6.6l-1.5-1.4-11.9,11.9,1.5,1.5a45.84,45.84,0,0,0,14.8,9.7h0a50.79,50.79,0,0,0,19.2,3.5c10,0,18.7-3.1,25.7-9.3s10.5-13.9,10.5-22.9C517,107.73,514.3,100.83,508.7,95.23Z"/><path class="cls-2" d="M420.3,63.23h0c-8.9-9.3-21.1-13.8-36.3-13.8H343.1l-4.2,16.1h13v81H384c15.2,0,27.4-4.5,36.3-13.6h0c8.8-9.2,13.1-20.8,13.1-34.8.2-14.1-4.3-25.7-13.1-34.9ZM415,98.13c0,11.2-3.1,19.1-9,24.4s-13.5,8.1-22.8,8.1H369.9V65.73h13.3c9.4,0,17,2.7,22.8,8.2h0C411.9,79.23,415,87.13,415,98.13Z"/></g></g></svg>