<svg xmlns="http://www.w3.org/2000/svg" viewBox="0 0 335 200.21"><defs><style>.cls-1{fill:#0078be;}.cls-2{fill:#fff;}.cls-3{fill:#82c0c0;}</style></defs><title>Asset 12</title><g id="Layer_2" data-name="Layer 2"><g id="Layer_5" data-name="Layer 5"><g id="layer1"><g id="g326"><g id="g2999"><g id="g2996"><g id="g3003"><path id="path328" class="cls-1" d="M0,100A100,100,0,1,0,100,0,99.78,99.78,0,0,0,0,100m74.58,24.59c7.44,7,15.29,9.71,22.75,9.71,11.35,0,19.81-6.8,19.81-16.13,0-11.37-10.94-16.31-21.49-16.31-3.71,0-7.24,0-9.49,1.05v-13l24.36-24.59H68.6V48.56h66.3V60.73L109.09,86.57c14.46,2.68,28.5,13.62,28.5,31.59,0,19.43-18.38,34.3-39,34.3-13.86,0-27.89-5.59-36.8-14.87Z"/></g></g></g></g><g id="g2992"><g id="g2989"><path id="path2987" class="cls-2" d="M90.21,151.55a57.9,57.9,0,0,1-23.35-9.92c-5.32-4-5.44-3.23,1.6-10.29l6.17-6.18,2.79,2.12c4.13,3.13,5.89,4.1,10.06,5.49a27.79,27.79,0,0,0,14,1.31c6.86-1.16,11.69-4.3,14.19-9.23a16.19,16.19,0,0,0,.44-12.84c-2.17-4.73-7.25-8.25-13.92-9.67-3.87-.81-11-1-13.87-.29l-1.88.43V89.83l12-12c6.6-6.6,12-12.17,12-12.37s-9.33-.38-20.75-.38H69V48.59h65.5V60.84L121.71,73.59c-7,7-12.75,12.91-12.75,13.12s.36.38.79.38c1.74,0,8.67,2.68,12,4.62,5.06,3,10.12,8.26,12.35,12.88a27.13,27.13,0,0,1,3.11,13.75c-.12,15.85-12.47,29.27-30.33,33a59.61,59.61,0,0,1-16.62.25Z"/></g></g></g></g><g id="Layer_14" data-name="Layer 14"><g id="layer1-2" data-name="layer1"><g id="g2991"><g id="g528"><path id="path530" class="cls-3" d="M234.79,200.21a100.11,100.11,0,1,0-99.79-100,99.72,99.72,0,0,0,99.79,100M196.7,150.72V65.42H178.26l6.23-17h31.68V150.72Zm60.48,0V65.42H239.35l5.18-17h32.3V150.72Z"/></g><path id="path2987-2" data-name="path2987" class="cls-2" d="M197,107.75V65h-9c-5,0-9-.14-9-.31s1.3-3.89,2.88-8.25l2.87-7.94H216v102H197V107.75Z"/><path id="path2989" class="cls-2" d="M257.46,107.75V65h-8.75c-4.81,0-8.74-.17-8.74-.38s1.08-3.86,2.39-8.12l2.38-7.75,15.86-.13,15.86-.14v102h-19Z"/></g></g></g></g></svg>