<svg xmlns="http://www.w3.org/2000/svg" viewBox="0 0 337 200"><defs><style>.cls-1{fill:#0078be;}.cls-2{fill:#fff;}.cls-3{fill:#de64a1;stroke:#000;stroke-opacity:0;stroke-width:0.2px;}</style></defs><title>Asset 38</title><g id="Layer_2" data-name="Layer 2"><g id="Layer_5" data-name="Layer 5"><g id="layer1"><g id="g326"><g id="g2999"><g id="g2996"><g id="g3003"><path id="path328" class="cls-1" d="M0,100.09A100,100,0,1,0,100,.1a99.78,99.78,0,0,0-100,100m74.58,24.59c7.44,7,15.29,9.71,22.75,9.71,11.35,0,19.81-6.8,19.81-16.12,0-11.38-10.94-16.31-21.49-16.31-3.71,0-7.24,0-9.49,1V90l24.36-24.59H68.6V48.66h66.3V60.83L109.09,86.67c14.46,2.69,28.5,13.63,28.5,31.6,0,19.42-18.38,34.3-39,34.3-13.86,0-27.89-5.6-36.8-14.88Z"/></g></g></g></g><g id="g2992"><g id="g2989"><path id="path2987" class="cls-2" d="M90.21,151.65a57.9,57.9,0,0,1-23.35-9.92c-5.32-4-5.44-3.23,1.6-10.29l6.17-6.18,2.79,2.12c4.13,3.14,5.89,4.1,10.06,5.5a27.9,27.9,0,0,0,14,1.3c6.86-1.15,11.69-4.29,14.19-9.23a16.19,16.19,0,0,0,.44-12.84c-2.17-4.73-7.25-8.25-13.92-9.66-3.87-.82-11-1-13.87-.3l-1.88.43V89.93l12-12c6.6-6.6,12-12.16,12-12.37s-9.33-.38-20.75-.38H69V48.69h65.5V61L121.71,73.69c-7,7-12.75,12.91-12.75,13.12s.36.38.79.38c1.74,0,8.67,2.68,12,4.62,5.06,3,10.12,8.26,12.35,12.88a27.15,27.15,0,0,1,3.11,13.75c-.12,15.85-12.47,29.27-30.33,33a59.23,59.23,0,0,1-16.62.25Z"/></g></g></g></g><g id="Layer_18" data-name="Layer 18"><circle id="path2982" class="cls-3" cx="237" cy="100" r="99.9"/><g id="g7"><path id="path2987-2" data-name="path2987" class="cls-2" d="M187.4,105.72V63.22h-9c-6.1,0-9-.2-9-.5s1.1-4,2.5-8.3l2.5-7.7h32v101.5h-19Z"/><path id="path2987-3" data-name="path2987" class="cls-2" d="M258.1,152.82a50.44,50.44,0,0,1-27.7-11.9l-2.5-2.2,6-6c3.3-3.3,6.1-6,6.2-6a21.52,21.52,0,0,1,2.9,2c14.9,11.2,36.2,8.9,41.2-4.3,1.4-3.8,1.2-10.4-.4-13.8-3.4-7-12.1-10.9-21.3-9.6a32.51,32.51,0,0,0-12,4.3l-1.9,1.2-7.1-.8c-3.9-.5-7.2-.9-7.2-1-.2-.2,2.3-54.3,2.6-56.3l.2-1.6h65.6l-2.8,8.1L297.1,63l-22.3.1-22.3.1-.3,3c-.6,6.2-1.3,21.3-1,21.6s1.4-.2,2.8-.8c6.9-2.8,17.8-3.7,24.8-1.8,12.3,3.2,21.4,11.3,25,22.2,1,3,1.2,4.5,1.2,9.9,0,5.7-.1,6.7-1.4,10.6-4.4,13.6-16.7,23.1-32.4,25a52.38,52.38,0,0,1-13.1-.1Z"/></g></g></g></svg>