<svg xmlns="http://www.w3.org/2000/svg" viewBox="0 0 335 200.39"><defs><style>.cls-1{fill:#0078be;}.cls-2{fill:#fff;}.cls-3{fill:#ffd702;}.cls-4{fill:#060506;}</style></defs><title>Asset 11</title><g id="Layer_2" data-name="Layer 2"><g id="Layer_5" data-name="Layer 5"><g id="layer1"><g id="g326"><g id="g2999"><g id="g2996"><g id="g3003"><path id="path328" class="cls-1" d="M0,100A100,100,0,1,0,100,0,99.78,99.78,0,0,0,0,100m74.58,24.59c7.44,7,15.29,9.71,22.75,9.71,11.35,0,19.81-6.8,19.81-16.13,0-11.37-10.94-16.31-21.49-16.31-3.71,0-7.24,0-9.49,1.05v-13l24.36-24.59H68.6V48.56h66.3V60.73L109.09,86.57c14.46,2.68,28.5,13.62,28.5,31.59,0,19.43-18.38,34.3-39,34.3-13.86,0-27.89-5.59-36.8-14.87Z"/></g></g></g></g><g id="g2992"><g id="g2989"><path id="path2987" class="cls-2" d="M90.21,151.55a57.9,57.9,0,0,1-23.35-9.92c-5.32-4-5.44-3.23,1.6-10.29l6.17-6.18,2.79,2.12c4.13,3.13,5.89,4.1,10.06,5.49a27.79,27.79,0,0,0,14,1.31c6.86-1.16,11.69-4.3,14.19-9.23a16.19,16.19,0,0,0,.44-12.84c-2.17-4.73-7.25-8.25-13.92-9.67-3.87-.81-11-1-13.87-.29l-1.88.43V89.83l12-12c6.6-6.6,12-12.17,12-12.37s-9.33-.38-20.75-.38H69V48.59h65.5V60.84L121.71,73.59c-7,7-12.75,12.91-12.75,13.12s.36.38.79.38c1.74,0,8.67,2.68,12,4.62,5.06,3,10.12,8.26,12.35,12.88a27.13,27.13,0,0,1,3.11,13.75c-.12,15.85-12.47,29.27-30.33,33a59.61,59.61,0,0,1-16.62.25Z"/></g></g></g></g><g id="Layer_11" data-name="Layer 11"><g id="layer1-2" data-name="layer1"><g id="g456"><path id="path458" class="cls-3" d="M135,100.9c0,54.9,44.79,99.49,100.33,99.49A99.7,99.7,0,0,0,235.33,1C179.79,1,135,45.16,135,100.9"/></g><g id="g460"><path id="path462" class="cls-4" d="M178.14,97.18c-7.64,2.69-14.66,11.16-14.66,20.64,0,16.31,13.43,26.43,33.45,26.43,19.8,0,33.43-10.12,33.43-26.43A22.31,22.31,0,0,0,215.7,97.18V97a20.13,20.13,0,0,0,12.59-18.79c0-13.64-11.95-24.75-31.36-24.75s-31.58,11.11-31.58,24.75A20.6,20.6,0,0,0,178.14,97Zm2.68,20.43c0-6.4,5.57-12.36,16.11-12.36s16.71,6,16.71,12.36c0,6.21-6.19,12.59-16.71,12.59s-16.11-6.38-16.11-12.59M182.46,79c0-6.21,4.36-11.77,14.47-11.77C206.64,67.26,212,72.82,212,79s-5.36,11.54-15.07,11.54c-10.11,0-14.47-5.34-14.47-11.54m47.9,63.58h17.77l6.18-18.18h34.05L295,142.61h17.95L279.08,54.85H264.4Zm28.89-32,12-32.81h.21l11.75,32.81Z"/></g></g></g></g></svg>