<svg xmlns="http://www.w3.org/2000/svg" viewBox="0 0 437.73 199.8"><defs><style>.cls-1{fill:#0078be;}.cls-2{fill:#fff;}.cls-3{fill:#e74182;}</style></defs><title>Asset 19</title><g id="Layer_2" data-name="Layer 2"><g id="Layer_5" data-name="Layer 5"><g id="layer1"><g id="g326"><g id="g2999"><g id="g2996"><g id="g3003"><path id="path328" class="cls-1" d="M0,100A100,100,0,1,0,100,0,99.78,99.78,0,0,0,0,100m74.58,24.59c7.44,7,15.29,9.71,22.75,9.71,11.35,0,19.81-6.8,19.81-16.13,0-11.37-10.94-16.31-21.49-16.31-3.71,0-7.24,0-9.49,1.05v-13l24.36-24.59H68.6V48.56h66.3V60.73L109.09,86.57c14.46,2.68,28.5,13.62,28.5,31.59,0,19.43-18.38,34.3-39,34.3-13.86,0-27.89-5.59-36.8-14.87Z"/></g></g></g></g><g id="g2992"><g id="g2989"><path id="path2987" class="cls-2" d="M90.21,151.55a57.9,57.9,0,0,1-23.35-9.92c-5.32-4-5.44-3.23,1.6-10.29l6.17-6.18,2.79,2.12c4.13,3.13,5.89,4.1,10.06,5.49a27.79,27.79,0,0,0,14,1.31c6.86-1.16,11.69-4.3,14.19-9.23a16.19,16.19,0,0,0,.44-12.84c-2.17-4.73-7.25-8.25-13.92-9.67-3.87-.81-11-1-13.87-.29l-1.88.43V89.83l12-12c6.6-6.6,12-12.17,12-12.37s-9.33-.38-20.75-.38H69V48.59h65.5V60.84L121.71,73.59c-7,7-12.75,12.91-12.75,13.12s.36.38.79.38c1.74,0,8.67,2.68,12,4.62,5.06,3,10.12,8.26,12.35,12.88a27.13,27.13,0,0,1,3.11,13.75c-.12,15.85-12.47,29.27-30.33,33a59.61,59.61,0,0,1-16.62.25Z"/></g></g></g></g><g id="Layer_21" data-name="Layer 21"><path class="cls-3" d="M185.6,27.92a4.92,4.92,0,0,1,4.7-3.5H432.8a4.93,4.93,0,0,1,4.7,6.4l-45.1,140.1a4.92,4.92,0,0,1-4.7,3.5H145.2a4.93,4.93,0,0,1-4.7-6.4Z"/><path class="cls-2" d="M281.3,63.42h0c-8.9-9.3-21.1-13.8-36.3-13.8H203.3l-4.2,16.1h13.8v81H245c15.2,0,27.4-4.5,36.3-13.6h0c8.8-9.2,13.1-20.8,13.1-34.8s-4.3-25.7-13.1-34.9ZM276,98.22c0,11.2-3.1,19.1-9,24.4s-13.5,8.1-22.8,8.1H230.9V65.92h13.3c9.4,0,17,2.7,22.8,8.2h0C272.9,79.42,276,87.32,276,98.22Z"/><path class="cls-2" d="M336.2,130.42l15.4-15.1h0c7.2-7.1,12.9-13.4,16.9-19h0a33.18,33.18,0,0,0,6.2-19.1c0-7.4-2.9-14.3-8.6-20.1h0c-5.8-6.1-14.1-9-24.4-9a43.64,43.64,0,0,0-20,4.7c-5.8,3.1-10.5,6.3-13.8,9.8h0l-1.4,1.5L318,75.62l1.5-1.4a41.84,41.84,0,0,1,9.8-6.6h0a25.62,25.62,0,0,1,12.4-3.1,15.58,15.58,0,0,1,10.8,3.7,12.39,12.39,0,0,1,4.2,9.7c0,3.7-1.4,7.6-4.3,11.8h0c-3,4.2-8.8,10.8-17.5,19.5h0l-24.3,24v13.5h63.6l6-16.4C380.2,130.42,336.2,130.42,336.2,130.42Z"/></g></g></svg>