<svg xmlns="http://www.w3.org/2000/svg" viewBox="0 0 432.73 199.61"><defs><style>.cls-1{fill:#00bfff;}.cls-2{fill:#fff;}.cls-3{fill:#f6a602;}</style></defs><title>Asset 40</title><g id="Layer_2" data-name="Layer 2"><g id="Layer_6" data-name="Layer 6"><g id="layer1"><g id="g2992"><g id="g348"><path id="path350" class="cls-1" d="M0,99.9A100,100,0,1,0,99.9,0,99.68,99.68,0,0,0,0,99.9m60.29,27.47V112.69l27-64.4h19.63L80.31,110.62v.21h27V84.2h19.2v26.63H142l-5.57,16.54h-9.91v22.7h-19.2v-22.7Z"/></g><g id="g2989"><path id="path2987" class="cls-2" d="M107.46,138.94v-11.5h-47V113.51l13.3-31.66c7.32-17.41,13.42-31.94,13.56-32.29s2.62-.62,9.75-.62c7.4,0,9.45.14,9.26.62s-5.91,13.87-12.84,30.06-12.79,30-13,30.62l-.46,1.2h27.47V84.94h19v26.5H134c4.13,0,7.5.17,7.5.37s-1.14,3.81-2.54,8l-2.54,7.63h-9.92v23h-19Z"/></g></g></g></g><g id="Layer_19" data-name="Layer 19"><path class="cls-3" d="M180.6,28.31a4.92,4.92,0,0,1,4.7-3.5H427.8a4.93,4.93,0,0,1,4.7,6.4l-45.1,140.1a4.92,4.92,0,0,1-4.7,3.5H140.2a4.93,4.93,0,0,1-4.7-6.4Z"/><polygon class="cls-2" points="267.4 75.81 267.4 75.81 268.8 74.21 267.4 75.81"/><polygon class="cls-2" points="343.3 132.01 343.3 51.31 307.6 51.31 307.6 67.71 325.8 67.71 325.8 132.01 306.2 132.01 306.2 148.41 358.6 148.41 365.4 132.01 343.3 132.01"/><path class="cls-2" d="M281.8,65h0c-8.9-9.3-21.1-13.8-36.3-13.8H202.2l-4.3,16.1h15.5v81h32.1c15.2,0,27.4-4.5,36.3-13.6h0c8.8-9.2,13.1-20.8,13.1-34.8s-4.3-25.7-13.1-34.9Zm-14.4,10.8c5.8,5.2,8.9,13.1,8.9,24,0,11.2-3.1,19.1-9,24.4s-13.5,8.1-22.8,8.1H231.2V67.51h13.3c9.4,0,16.9,2.9,22.9,8.3Z"/></g></g></svg>