<svg xmlns="http://www.w3.org/2000/svg" viewBox="0 0 336.5 199.77"><defs><style>.cls-1{fill:#8d5b2d;}.cls-2{fill:#fff;}.cls-3{fill:#ed9121;}</style></defs><title>Asset 22</title><g id="Layer_2" data-name="Layer 2"><g id="Layer_7" data-name="Layer 7"><g id="layer1"><g id="g3007"><g id="g370"><path id="path372" class="cls-1" d="M0,100A100,100,0,1,0,99.9.08,99.68,99.68,0,0,0,0,100m72.06,27.86c7.61,6.82,16.27,9.93,24.75,9.93,12.59,0,21.68-6.61,21.68-18.61,0-9.68-7.85-17.32-20-17.32-5.77,0-12.2,2.27-17.54,6L65.63,106,68.54,45.9h68.12l-6,17.33h-46L83.17,88.41h.23c5.57-2.88,12.79-4.13,18.77-4.13,18.59,0,37.15,12.61,37.15,34.7,0,19.4-16.11,37.15-41.29,37.15-16.92,0-29.49-5.57-39-15.27Z"/></g><g id="g3001"><g id="g2996"><g id="g2992"><g id="g2989"><path id="path2987" class="cls-2" d="M90.46,155.42a52,52,0,0,1-28.53-12.31l-2.54-2.29,6.15-6.17c3.39-3.39,6.28-6.17,6.43-6.17a23.48,23.48,0,0,1,3,2.06c15.34,11.53,37.37,9.22,42.5-4.45,1.47-3.94,1.27-10.76-.42-14.2-3.54-7.18-12.51-11.24-21.94-9.92a35.42,35.42,0,0,0-12.34,4.39l-1.94,1.22-7.31-.88c-4-.48-7.39-.92-7.48-1s2.4-56,2.71-58.1L69,46h67.34l-2.88,8.38-2.89,8.37-23,.13-23,.13-.29,3.12c-.59,6.44-1.33,22-1.06,22.27a6.91,6.91,0,0,0,2.91-.79c7.14-2.94,18.4-3.77,25.61-1.9C124.42,89,133.8,97.3,137.5,108.57c1,3.11,1.21,4.65,1.21,10.16,0,5.83-.15,7-1.45,10.93-4.58,14-17.24,23.78-33.37,25.8a49.77,49.77,0,0,1-13.43,0Z"/></g></g></g></g></g></g></g><g id="Layer_8" data-name="Layer 8"><g id="layer1-2" data-name="layer1"><g id="g2998"><g id="g386"><path id="path388" class="cls-3" d="M236.3,199.77A99.89,99.89,0,1,0,136.5,100a99.81,99.81,0,0,0,99.8,99.8M227,84.48c4.75-1.85,9.71-3.5,15.08-3.5C258.41,81,276,94,276,115.28c0,20.24-15.49,37.18-39.26,37.18-24.38,0-38.23-20-38.23-39.87,0-14.69,6.21-27.27,22.54-47.31L236.1,46.7l21.47,2.07L227,84.29Zm10.76,50.63c11.16,0,18.17-8.07,18.17-18.81,0-9.92-7-18.58-18.17-18.58a18.32,18.32,0,0,0-18.4,18.58c0,10.74,7.64,18.81,18.4,18.81"/></g><path id="path2987-2" data-name="path2987" class="cls-2" d="M229.46,151.56a39.49,39.49,0,0,1-17.34-8.34c-4.93-4-10-12.47-12-19.9-1.45-5.47-1.32-17.64.26-23,2.45-8.37,7.38-17.24,15.56-28,3.72-4.89,18.18-22.95,19.75-24.67.51-.55,2.25-.51,10.18.23A97.58,97.58,0,0,1,256,49.11c.45.27-18.49,23-28.23,33.83-.56.62-.89,1.24-.74,1.39a13.2,13.2,0,0,0,4-1c10.09-3.36,19.24-2.45,28.16,2.81,11.36,6.7,17.48,19.13,16.18,32.91-1.53,16.31-13.49,29-30.27,32.26a58.11,58.11,0,0,1-15.63.21Zm14-17.11a16.93,16.93,0,0,0,12-12.5c1-3.75.5-10.54-1.07-13.88a17.31,17.31,0,0,0-15.09-10.39c-12.5-.8-21.77,9.44-19.78,21.86a16.91,16.91,0,0,0,5,10.23,18.81,18.81,0,0,0,19,4.68Z"/><g id="g2994"><g id="g2991"><path id="path2989" class="cls-2" d="M229.21,151.56a40.62,40.62,0,0,1-17.09-8.34c-4.93-4-10-12.47-12-19.9-1.44-5.42-1.32-17.61.23-23,2.32-8.1,7.38-17.19,15.58-28,3.68-4.85,18.13-22.89,19.77-24.67.52-.56,2.19-.53,10.17.21A98.87,98.87,0,0,1,256,49.1c.36.22-5,6.86-14.3,17.68-8.18,9.53-14.78,17.43-14.66,17.54a17.5,17.5,0,0,0,3.94-1c10.41-3.3,19.28-2.41,28.19,2.84,11.44,6.74,17.48,19.12,16.16,33.13-1.51,16.1-13.54,28.85-30.25,32-4,.76-12.55.87-15.88.21Zm16.45-17.92c6.41-2.84,10.31-9.24,10.3-16.93,0-6-1.62-10.29-5.24-13.91-7-7-19.05-6.86-26.14.28-8.81,8.88-6.19,25,4.93,30.39,4.45,2.16,11.49,2.23,16.15.17Z"/></g></g></g></g></g></g></svg>