<svg xmlns="http://www.w3.org/2000/svg" viewBox="0 0 336.5 199.8"><defs><style>.cls-1{fill:#ed9121;}.cls-2{fill:#fff;}.cls-3{fill:purple;}</style></defs><title>Asset 24</title><g id="Layer_2" data-name="Layer 2"><g id="Layer_8" data-name="Layer 8"><g id="layer1"><g id="g2998"><g id="g386"><path id="path388" class="cls-1" d="M99.81,199.8A99.89,99.89,0,1,0,0,100,99.82,99.82,0,0,0,99.81,199.8M90.5,84.5c4.76-1.84,9.72-3.5,15.08-3.5,16.33,0,33.89,13,33.89,34.3,0,20.24-15.49,37.18-39.25,37.18-24.39,0-38.24-20-38.24-39.87,0-14.69,6.21-27.27,22.54-47.31L99.6,46.72l21.47,2.07L90.5,84.32Zm10.76,50.63c11.17,0,18.17-8.07,18.17-18.81,0-9.92-7-18.58-18.17-18.58a18.32,18.32,0,0,0-18.4,18.58c0,10.74,7.64,18.81,18.4,18.81"/></g><path id="path2987" class="cls-2" d="M93,151.58a39.46,39.46,0,0,1-17.33-8.34c-4.93-4-10-12.47-12-19.9-1.46-5.47-1.32-17.64.25-23,2.46-8.37,7.39-17.24,15.56-28,3.72-4.89,18.18-23,19.76-24.67.5-.55,2.24-.51,10.18.23a98.46,98.46,0,0,1,10.14,1.23c.44.27-18.49,23-28.24,33.83-.55.62-.88,1.24-.74,1.39a13.13,13.13,0,0,0,4-1c10.09-3.36,19.24-2.45,28.17,2.81,11.36,6.7,17.47,19.13,16.17,32.91-1.52,16.31-13.48,29.06-30.26,32.27a58.59,58.59,0,0,1-15.64.2Zm14-17.1A17,17,0,0,0,119,122c1-3.75.49-10.54-1.07-13.88a17.32,17.32,0,0,0-15.1-10.39C90.28,96.9,81,107.14,83,119.56a17,17,0,0,0,5,10.23,18.84,18.84,0,0,0,19,4.69Z"/><g id="g2994"><g id="g2991"><path id="path2989" class="cls-2" d="M92.71,151.58a40.59,40.59,0,0,1-17.08-8.34c-4.93-4-10-12.47-12-19.9-1.44-5.42-1.32-17.61.22-23,2.32-8.1,7.38-17.19,15.58-28,3.68-4.85,18.14-22.89,19.78-24.67.51-.56,2.19-.53,10.16.21a99.74,99.74,0,0,1,10.13,1.24c.35.22-5,6.86-14.31,17.68C97,76.33,90.44,84.23,90.55,84.34a17.65,17.65,0,0,0,4-1c10.4-3.3,19.28-2.41,28.19,2.84,11.43,6.74,17.47,19.12,16.15,33.13-1.51,16.1-13.54,28.85-30.24,32.05-3.95.75-12.56.86-15.89.2Zm16.45-17.92c6.42-2.84,10.31-9.24,10.3-16.93,0-6-1.62-10.29-5.24-13.91-7-7-19-6.86-26.13.29-8.82,8.87-6.2,25,4.93,30.38,4.45,2.16,11.49,2.23,16.14.17Z"/></g></g></g></g></g><g id="Layer_9" data-name="Layer 9"><g id="layer1-2" data-name="layer1"><g id="g3007"><g id="g408"><path id="path410" class="cls-3" d="M136.5,100a100,100,0,1,0,100-100,99.78,99.78,0,0,0-100,100m80.57,50.2,36-84.7H204.88V48.75h70.05V62.17l-36.37,88Z"/></g><g id="g3001"><g id="g2996"><g id="g2992"><g id="g2989"><path id="path2987-2" data-name="path2987" class="cls-2" d="M217.83,149.21c.19-.48,8.26-19.55,17.95-42.37l17.61-41.5-24.21-.13L205,65.08v-16h69.5V62.57l-18.08,43.76L238.3,150.09H227.9C218.2,150.09,217.52,150,217.83,149.21Z"/></g></g></g></g></g></g></g></g></svg>