<svg xmlns="http://www.w3.org/2000/svg" viewBox="0 0 438.23 199.77"><defs><style>.cls-1{fill:#ed9121;}.cls-2{fill:#fff;}.cls-3{fill:#e74182;}</style></defs><title>Asset 28</title><g id="Layer_2" data-name="Layer 2"><g id="Layer_8" data-name="Layer 8"><g id="layer1"><g id="g2998"><g id="g386"><path id="path388" class="cls-1" d="M99.81,199.77A99.89,99.89,0,1,0,0,100a99.81,99.81,0,0,0,99.81,99.8M90.5,84.48c4.76-1.85,9.72-3.5,15.08-3.5,16.33,0,33.89,13,33.89,34.3,0,20.24-15.49,37.18-39.25,37.18-24.39,0-38.24-20-38.24-39.87,0-14.69,6.21-27.27,22.54-47.31L99.6,46.7l21.47,2.07L90.5,84.29Zm10.76,50.63c11.17,0,18.17-8.07,18.17-18.81,0-9.92-7-18.58-18.17-18.58a18.32,18.32,0,0,0-18.4,18.58c0,10.74,7.64,18.81,18.4,18.81"/></g><path id="path2987" class="cls-2" d="M93,151.56a39.46,39.46,0,0,1-17.33-8.34c-4.93-4-10-12.47-12-19.9-1.46-5.47-1.32-17.64.25-23,2.46-8.37,7.39-17.24,15.56-28,3.72-4.89,18.18-22.95,19.76-24.67.5-.55,2.24-.51,10.18.23a98.46,98.46,0,0,1,10.14,1.23c.44.27-18.49,23-28.24,33.83-.55.62-.88,1.24-.74,1.39a13.13,13.13,0,0,0,4-1c10.09-3.36,19.24-2.45,28.17,2.81,11.36,6.7,17.47,19.13,16.17,32.91-1.52,16.31-13.48,29-30.26,32.26a58.19,58.19,0,0,1-15.64.21Zm14-17.11A17,17,0,0,0,119,122c1-3.75.49-10.54-1.07-13.88a17.32,17.32,0,0,0-15.1-10.39C90.28,96.88,81,107.12,83,119.54a17,17,0,0,0,5,10.23,18.81,18.81,0,0,0,19,4.68Z"/><g id="g2994"><g id="g2991"><path id="path2989" class="cls-2" d="M92.71,151.56a40.59,40.59,0,0,1-17.08-8.34c-4.93-4-10-12.47-12-19.9-1.44-5.42-1.32-17.61.22-23,2.32-8.1,7.38-17.19,15.58-28,3.68-4.85,18.14-22.89,19.78-24.67.51-.56,2.19-.53,10.16.21a99.74,99.74,0,0,1,10.13,1.24c.35.22-5,6.86-14.31,17.68C97,76.31,90.44,84.21,90.55,84.32a17.65,17.65,0,0,0,4-1c10.4-3.3,19.28-2.41,28.19,2.84,11.43,6.74,17.47,19.12,16.15,33.13-1.51,16.1-13.54,28.85-30.24,32-3.95.76-12.56.87-15.89.21Zm16.45-17.92c6.42-2.84,10.31-9.24,10.3-16.93,0-6-1.62-10.29-5.24-13.91-7-7-19-6.86-26.13.28-8.82,8.88-6.2,25,4.93,30.39,4.45,2.16,11.49,2.23,16.14.17Z"/></g></g></g></g></g><g id="Layer_21" data-name="Layer 21"><path class="cls-3" d="M186.1,33.64a4.92,4.92,0,0,1,4.7-3.5H433.3a4.93,4.93,0,0,1,4.7,6.4l-45.1,140.1a4.92,4.92,0,0,1-4.7,3.5H145.7a4.93,4.93,0,0,1-4.7-6.4Z"/><path class="cls-2" d="M281.8,69.14h0c-8.9-9.3-21.1-13.8-36.3-13.8H203.8l-4.2,16.1h13.8v81h32.1c15.2,0,27.4-4.5,36.3-13.6h0c8.8-9.2,13.1-20.8,13.1-34.8s-4.3-25.7-13.1-34.9Zm-5.3,34.8c0,11.2-3.1,19.1-9,24.4s-13.5,8.1-22.8,8.1H231.4V71.64h13.3c9.4,0,17,2.7,22.8,8.2h0C273.4,85.14,276.5,93,276.5,103.94Z"/><path class="cls-2" d="M336.7,136.14,352.1,121h0c7.2-7.1,12.9-13.4,16.9-19h0a33.18,33.18,0,0,0,6.2-19.1c0-7.4-2.9-14.3-8.6-20.1h0c-5.8-6.1-14.1-9-24.4-9a43.64,43.64,0,0,0-20,4.7c-5.8,3.1-10.5,6.3-13.8,9.8h0l-1.4,1.5,11.5,11.5,1.5-1.4a41.84,41.84,0,0,1,9.8-6.6h0a25.62,25.62,0,0,1,12.4-3.1,15.58,15.58,0,0,1,10.8,3.7,12.39,12.39,0,0,1,4.2,9.7c0,3.7-1.4,7.6-4.3,11.8h0c-3,4.2-8.8,10.8-17.5,19.5h0l-24.3,24v13.5h63.6l6-16.4C380.7,136.14,336.7,136.14,336.7,136.14Z"/></g></g></svg>