<svg xmlns="http://www.w3.org/2000/svg" viewBox="0 0 337 200.21"><defs><style>.cls-1{fill:purple;}.cls-2{fill:#fff;}.cls-3{fill:#82c0c0;}</style></defs><title>Asset 29</title><g id="Layer_2" data-name="Layer 2"><g id="Layer_9" data-name="Layer 9"><g id="layer1"><g id="g3007"><g id="g408"><path id="path410" class="cls-1" d="M0,100.19A100,100,0,1,0,100,.21a99.78,99.78,0,0,0-100,100m80.57,50.2,36-84.7H68.37V49h70.06V62.37l-36.37,88Z"/></g><g id="g3001"><g id="g2996"><g id="g2992"><g id="g2989"><path id="path2987" class="cls-2" d="M81.33,149.42c.18-.48,8.26-19.55,18-42.38l17.61-41.5-24.21-.13-24.22-.13v-16H138V62.77l-18.08,43.76L101.8,150.29H91.4C81.7,150.29,81,150.23,81.33,149.42Z"/></g></g></g></g></g></g></g><g id="Layer_14" data-name="Layer 14"><g id="layer1-2" data-name="layer1"><g id="g2991"><g id="g528"><path id="path530" class="cls-3" d="M236.79,200.21a100.11,100.11,0,1,0-99.79-100,99.72,99.72,0,0,0,99.79,100M198.7,150.72V65.42H180.26l6.23-17h31.68V150.72Zm60.48,0V65.42H241.35l5.18-17h32.3V150.72Z"/></g><path id="path2987-2" data-name="path2987" class="cls-2" d="M199,107.75V65h-9c-5,0-9-.14-9-.31s1.3-3.89,2.88-8.25l2.87-7.94H218v102H199V107.75Z"/><path id="path2989" class="cls-2" d="M259.46,107.75V65h-8.75c-4.81,0-8.74-.17-8.74-.38s1.08-3.86,2.39-8.12l2.38-7.75,15.86-.13,15.86-.14v102h-19Z"/></g></g></g></g></svg>