<svg xmlns="http://www.w3.org/2000/svg" viewBox="0 0 337 200"><defs><style>.cls-1{fill:#ffd702;}.cls-2{fill:#060506;}.cls-3{fill:#ee2722;}.cls-4{fill:#231f20;}.cls-5{fill:#fff;}</style></defs><title>Asset 30</title><g id="Layer_2" data-name="Layer 2"><g id="Layer_10" data-name="Layer 10"><g id="layer1"><g id="g430"><path id="path432" class="cls-1" d="M0,100.09A100,100,0,1,0,100,.1a99.78,99.78,0,0,0-100,100"/></g><g id="g434"><path id="path436" class="cls-2" d="M78.3,97.61c-9.5,3.71-17.56,13-17.56,24,0,18.4,15.92,30.78,39.24,30.78,23,0,38.44-12.38,38.44-30.78,0-11-7.64-20.26-16.51-24V97.2a24.16,24.16,0,0,0,14.67-21.88c0-15.31-13.85-28.73-36.6-28.73C77.46,46.59,63.22,60,63.22,75.32A23.91,23.91,0,0,0,78.3,97.2Zm2.26,23.75c0-8,6.84-14.65,19.42-14.65,12,0,19.43,6.62,19.43,14.65,0,7.23-7.42,14.26-19.43,14.26-12.58,0-19.42-7-19.42-14.26m1.68-45.24c0-6.62,6.19-13.22,17.74-13.22,11.37,0,17.38,6.6,17.38,13.22C117.36,84,111.35,90,100,90c-11.55,0-17.74-6-17.74-13.85"/></g></g></g><g id="Layer_17" data-name="Layer 17"><g id="layer1-2" data-name="layer1"><g id="g2998"><g id="g658"><path id="path660-3" class="cls-3" d="M236.91,200C296,200,337,151.11,337,99.91,337,41.13,288.13,0,236.91,0,178,0,137,49.05,137,99.91,137,159,186.05,200,236.91,200m0-8.27c-53.72,0-91.64-44.38-91.64-91.82,0-53.38,43.84-91.66,91.64-91.66,53.72,0,91.84,44.4,91.84,91.66,0,53.36-43.68,91.82-91.84,91.82m-79.79-91.64c0,46.73,38.28,79.79,79.79,79.79,47.8,0,80-39.35,80-79.79,0-48.53-39.89-80-80-80-47.26,0-79.79,38.82-79.79,80m79.79,71.7c-42,0-71.72-35.06-71.72-71.7,0-42.77,35.6-71.9,71.72-71.9,42.77,0,71.88,35.77,71.88,71.9,0,42-35.4,71.7-71.88,71.7"/></g><g id="g662"><path id="path664" class="cls-4" d="M200.07,139.8h15.1V58.21H190l-4.83,13.47h14.9Zm29.11-18.5h38.28v18.5h14.92V121.3h8.09L295,108.54H282.38V86.78H267.46v21.76H245.71L267.3,58.21H251.1L229.18,110Z"/></g><g id="g2994"><g id="g2991"><path id="path2989" class="cls-5" d="M223.54,190.5a98.61,98.61,0,0,1-19-5C174,174.17,151.19,145.39,146.41,112c-.94-6.58-.83-19.91.22-26.13a90.59,90.59,0,0,1,12.46-33.83A92.68,92.68,0,0,1,224,9.53a112.46,112.46,0,0,1,26.38,0C283.75,14.56,311.1,37.16,323,69.54A91.14,91.14,0,0,1,314.84,148a92.47,92.47,0,0,1-37.63,33.82,85.44,85.44,0,0,1-40.75,9.41,119.9,119.9,0,0,1-12.92-.73ZM251,178.79c37.73-6.11,65.94-39.74,66-78.68,0-26.48-11.76-49.7-33-65C269.85,25,249.48,18.93,233.21,20,207.6,21.78,187.73,32.29,173,51.9c-18.09,24-21.05,57.43-7.49,84.41,11.62,23.1,35.29,39.84,60.74,42.95a80.23,80.23,0,0,0,24.75-.47Z"/></g></g></g><path id="path823" class="cls-5" d="M228,171.08c-30.88-4.29-54.83-26.86-61.26-57.74A84.73,84.73,0,0,1,166,91.27c4-31.64,28.18-56.63,60.05-62,6.15-1,20.07-.75,25.71.52C279.87,36.14,301,57.7,307.28,86.59c1.31,6,1.32,21.46,0,27.48A69.91,69.91,0,0,1,301,131.84c-9.66,19.49-29.22,34.24-51.1,38.51C245,171.31,232.59,171.72,228,171.08Zm-12.5-72v-41l-12.87.13-12.86.13-2.36,6.5c-1.29,3.58-2.36,6.67-2.38,6.88s3.35.37,7.47.37H200v68h15.5Zm67,31.78v-9.23l4.12-.14,4.11-.15,2.11-6c1.16-3.3,2.12-6.28,2.14-6.62s-1.54-.63-6.23-.63h-6.25V86.59h-15v21.5H256.91c-9.82,0-10.54-.06-10.31-.87.14-.48,4.8-11.45,10.36-24.38s10.22-23.78,10.36-24.14-1.48-.6-8.12-.5l-8.38.14L239.9,84.09,229,109.84v5.88l0,5.87h38.5v18.5h15Z"/></g></g></g></svg>