<svg xmlns="http://www.w3.org/2000/svg" viewBox="0 0 337 200"><defs><style>.cls-1{fill:#ffd702;}.cls-2{fill:#060506;}.cls-3{fill:#de64a1;stroke:#000;stroke-opacity:0;stroke-width:0.2px;}.cls-4{fill:#fff;}</style></defs><title>Asset 31</title><g id="Layer_2" data-name="Layer 2"><g id="Layer_10" data-name="Layer 10"><g id="layer1"><g id="g430"><path id="path432" class="cls-1" d="M0,100.09A100,100,0,1,0,100,.1a99.78,99.78,0,0,0-100,100"/></g><g id="g434"><path id="path436" class="cls-2" d="M78.3,97.61c-9.5,3.71-17.56,13-17.56,24,0,18.4,15.92,30.78,39.24,30.78,23,0,38.44-12.38,38.44-30.78,0-11-7.64-20.26-16.51-24V97.2a24.16,24.16,0,0,0,14.67-21.88c0-15.31-13.85-28.73-36.6-28.73C77.46,46.59,63.22,60,63.22,75.32A23.91,23.91,0,0,0,78.3,97.2Zm2.26,23.75c0-8,6.84-14.65,19.42-14.65,12,0,19.43,6.62,19.43,14.65,0,7.23-7.42,14.26-19.43,14.26-12.58,0-19.42-7-19.42-14.26m1.68-45.24c0-6.62,6.19-13.22,17.74-13.22,11.37,0,17.38,6.6,17.38,13.22C117.36,84,111.35,90,100,90c-11.55,0-17.74-6-17.74-13.85"/></g></g></g><g id="Layer_18" data-name="Layer 18"><circle id="path2982" class="cls-3" cx="237" cy="100" r="99.9"/><g id="g7"><path id="path2987" class="cls-4" d="M187.4,105.72V63.22h-9c-6.1,0-9-.2-9-.5s1.1-4,2.5-8.3l2.5-7.7h32v101.5h-19Z"/><path id="path2987-2" data-name="path2987" class="cls-4" d="M258.1,152.82a50.44,50.44,0,0,1-27.7-11.9l-2.5-2.2,6-6c3.3-3.3,6.1-6,6.2-6a21.52,21.52,0,0,1,2.9,2c14.9,11.2,36.2,8.9,41.2-4.3,1.4-3.8,1.2-10.4-.4-13.8-3.4-7-12.1-10.9-21.3-9.6a32.51,32.51,0,0,0-12,4.3l-1.9,1.2-7.1-.8c-3.9-.5-7.2-.9-7.2-1-.2-.2,2.3-54.3,2.6-56.3l.2-1.6h65.6l-2.8,8.1L297.1,63l-22.3.1-22.3.1-.3,3c-.6,6.2-1.3,21.3-1,21.6s1.4-.2,2.8-.8c6.9-2.8,17.8-3.7,24.8-1.8,12.3,3.2,21.4,11.3,25,22.2,1,3,1.2,4.5,1.2,9.9,0,5.7-.1,6.7-1.4,10.6-4.4,13.6-16.7,23.1-32.4,25a52.38,52.38,0,0,1-13.1-.1Z"/></g></g></g></svg>