<?xml version="1.0" encoding="UTF-8" standalone="no"?>
<!-- Created with Inkscape (http://www.inkscape.org/) -->

<svg
   xmlns:dc="http://purl.org/dc/elements/1.1/"
   xmlns:cc="http://creativecommons.org/ns#"
   xmlns:rdf="http://www.w3.org/1999/02/22-rdf-syntax-ns#"
   xmlns:svg="http://www.w3.org/2000/svg"
   xmlns="http://www.w3.org/2000/svg"
   xmlns:sodipodi="http://sodipodi.sourceforge.net/DTD/sodipodi-0.dtd"
   xmlns:inkscape="http://www.inkscape.org/namespaces/inkscape"
   width="200"
   height="199.7951"
   id="svg147969"
   version="1.1"
   inkscape:version="0.92.2 (5c3e80d, 2017-08-06)"
   sodipodi:docname="Moskwa_Metro_Line_8.svg">
  <defs
     id="defs147971" />
  <sodipodi:namedview
     id="base"
     pagecolor="#ffffff"
     bordercolor="#666666"
     borderopacity="1.0"
     inkscape:pageopacity="0.0"
     inkscape:pageshadow="2"
     inkscape:zoom="3.4296875"
     inkscape:cx="77.745083"
     inkscape:cy="97.460157"
     inkscape:current-layer="layer1"
     inkscape:document-units="px"
     showgrid="false"
     showguides="true"
     inkscape:guide-bbox="true"
     inkscape:snap-bbox="true"
     inkscape:bbox-nodes="true"
     inkscape:bbox-paths="true"
     inkscape:snap-bbox-midpoints="true"
     inkscape:snap-bbox-edge-midpoints="true"
     fit-margin-top="0"
     fit-margin-left="0"
     fit-margin-right="0"
     fit-margin-bottom="0"
     inkscape:window-width="1920"
     inkscape:window-height="1027"
     inkscape:window-x="-8"
     inkscape:window-y="-8"
     inkscape:window-maximized="1">
    <sodipodi:guide
       orientation="1,0"
       position="0,-8.4852853"
       id="guide148130"
       inkscape:locked="false" />
    <sodipodi:guide
       orientation="0,1"
       position="270.11479,-3.9262657e-006"
       id="guide148132"
       inkscape:locked="false" />
    <sodipodi:guide
       orientation="1,0"
       position="200,-3.9262657e-006"
       id="guide148134"
       inkscape:locked="false" />
  </sodipodi:namedview>
  <metadata
     id="metadata147974">
    <rdf:RDF>
      <cc:Work
         rdf:about="">
        <dc:format>image/svg+xml</dc:format>
        <dc:type
           rdf:resource="http://purl.org/dc/dcmitype/StillImage" />
        <dc:title></dc:title>
      </cc:Work>
    </rdf:RDF>
  </metadata>
  <g
     id="layer1"
     inkscape:label="Layer 1"
     inkscape:groupmode="layer"
     transform="translate(-1.0234375,1.4324565)">
    <g
       id="g430"
       transform="matrix(20.489704,0,0,-20.489704,1.0234375,98.557299)">
      <path
         inkscape:connector-curvature="0"
         d="m 0,0 c 0,-2.693 2.178,-4.871 4.88,-4.871 2.692,0 4.881,2.178 4.881,4.871 0,2.693 -2.189,4.88 -4.881,4.88 C 2.178,4.88 0,2.693 0,0"
         style="fill:#ffd702;fill-opacity:1;fill-rule:nonzero;stroke:none"
         id="path432"
         sodipodi:nodetypes="csssc" />
    </g>
    <g
       id="g434"
       transform="matrix(20.489704,0,0,-20.489704,79.326891,96.076064)">
      <path
         inkscape:connector-curvature="0"
         d="m 0,0 c -0.464,-0.181 -0.857,-0.635 -0.857,-1.17 0,-0.898 0.777,-1.502 1.915,-1.502 1.12,0 1.876,0.604 1.876,1.502 0,0.535 -0.373,0.989 -0.806,1.17 l 0,0.02 C 2.572,0.202 2.844,0.655 2.844,1.088 2.844,1.835 2.168,2.49 1.058,2.49 -0.041,2.49 -0.736,1.835 -0.736,1.088 -0.736,0.655 -0.464,0.202 0,0.02 z m 0.11,-1.159 c 0,0.392 0.334,0.715 0.948,0.715 0.586,0 0.948,-0.323 0.948,-0.715 0,-0.353 -0.362,-0.696 -0.948,-0.696 -0.614,0 -0.948,0.343 -0.948,0.696 m 0.082,2.208 c 0,0.323 0.302,0.645 0.866,0.645 0.555,0 0.848,-0.322 0.848,-0.645 0,-0.383 -0.293,-0.676 -0.848,-0.676 -0.564,0 -0.866,0.293 -0.866,0.676"
         style="fill:#060506;fill-opacity:1;fill-rule:nonzero;stroke:none"
         id="path436"
         sodipodi:nodetypes="csssccssscccsssccsssc" />
    </g>
  </g>
</svg>
