<svg xmlns="http://www.w3.org/2000/svg" viewBox="0 0 337 200.21"><defs><style>.cls-1{fill:#ffd702;}.cls-2{fill:#060506;}.cls-3{fill:#82c0c0;}.cls-4{fill:#fff;}</style></defs><title>Asset 32</title><g id="Layer_2" data-name="Layer 2"><g id="Layer_11" data-name="Layer 11"><g id="layer1"><g id="g456"><path id="path458" class="cls-1" d="M0,100.31c0,54.9,44.79,99.49,100.33,99.49a99.7,99.7,0,0,0,0-199.39C44.79.41,0,44.57,0,100.31"/></g><g id="g460"><path id="path462" class="cls-2" d="M43.14,96.59c-7.64,2.69-14.66,11.16-14.66,20.64,0,16.31,13.43,26.43,33.45,26.43,19.8,0,33.43-10.12,33.43-26.43A22.31,22.31,0,0,0,80.7,96.59v-.2A20.13,20.13,0,0,0,93.29,77.6c0-13.64-12-24.75-31.36-24.75S30.35,64,30.35,77.6A20.6,20.6,0,0,0,43.14,96.39ZM45.82,117c0-6.4,5.57-12.36,16.11-12.36s16.71,6,16.71,12.36c0,6.21-6.19,12.59-16.71,12.59S45.82,123.23,45.82,117m1.64-38.58c0-6.21,4.36-11.77,14.47-11.77C71.64,66.67,77,72.23,77,78.44S71.64,90,61.93,90c-10.11,0-14.47-5.34-14.47-11.54M95.36,142h17.77l6.18-18.18h34.05L160,142h17.95L144.08,54.26H129.4Zm28.89-32,12-32.81h.21L148.2,110Z"/></g></g></g><g id="Layer_14" data-name="Layer 14"><g id="layer1-2" data-name="layer1"><g id="g2991"><g id="g528"><path id="path530" class="cls-3" d="M236.79,200.21a100.11,100.11,0,1,0-99.79-100,99.72,99.72,0,0,0,99.79,100M198.7,150.72V65.42H180.26l6.23-17h31.68V150.72Zm60.48,0V65.42H241.35l5.18-17h32.3V150.72Z"/></g><path id="path2987" class="cls-4" d="M199,107.75V65h-9c-5,0-9-.14-9-.31s1.3-3.89,2.88-8.25l2.87-7.94H218v102H199V107.75Z"/><path id="path2989" class="cls-4" d="M259.46,107.75V65h-8.75c-4.81,0-8.74-.17-8.74-.38s1.08-3.86,2.39-8.12l2.38-7.75,15.86-.13,15.86-.14v102h-19Z"/></g></g></g></g></svg>