<svg xmlns="http://www.w3.org/2000/svg" viewBox="0 0 337 199.98"><defs><style>.cls-1{fill:#ffd702;}.cls-2{fill:#060506;}.cls-3{fill:#999;}.cls-4{fill:#fff;}</style></defs><title>Asset 34</title><g id="Layer_2" data-name="Layer 2"><g id="Layer_11" data-name="Layer 11"><g id="layer1"><g id="g456"><path id="path458" class="cls-1" d="M0,100.19c0,54.91,44.79,99.49,100.33,99.49A99.69,99.69,0,0,0,100.33.3C44.79.3,0,44.45,0,100.19"/></g><g id="g460"><path id="path462" class="cls-2" d="M43.14,96.48c-7.64,2.68-14.66,11.16-14.66,20.64,0,16.31,13.43,26.42,33.45,26.42,19.8,0,33.43-10.11,33.43-26.42A22.3,22.3,0,0,0,80.7,96.48v-.2a20.13,20.13,0,0,0,12.59-18.8c0-13.63-12-24.74-31.36-24.74S30.35,63.85,30.35,77.48a20.6,20.6,0,0,0,12.79,18.8Zm2.68,20.43c0-6.41,5.57-12.36,16.11-12.36s16.71,6,16.71,12.36c0,6.2-6.19,12.59-16.71,12.59s-16.11-6.39-16.11-12.59m1.64-38.59c0-6.2,4.36-11.77,14.47-11.77C71.64,66.55,77,72.12,77,78.32S71.64,89.87,61.93,89.87c-10.11,0-14.47-5.34-14.47-11.55m47.9,63.59h17.77l6.18-18.18h34.05L160,141.91h17.95L144.08,54.15H129.4Zm28.89-32,12-32.82h.21l11.75,32.82Z"/></g></g></g><g id="Layer_12" data-name="Layer 12"><path id="path2" class="cls-3" d="M236.91,200A100,100,0,1,0,137,100.07,99.74,99.74,0,0,0,236.91,200m-19.45-49.43,31.43-36v-.63c-5.79,2.48-10.53,3.73-15.51,3.73-16.94,0-33.29-11.79-33.29-33.72,0-20.9,15.12-37.21,38.27-37.21,24.39,0,37.85,19.43,37.85,39.08,0,15.3-6.22,27.73-22.34,47.56l-15.1,19Zm20.29-48.8c11.13,0,18.19-9.31,18.19-19,0-10.75-7.06-19.24-18.19-19.24-11.41,0-18.65,8.49-18.65,19.24,0,9.72,7.24,19,18.65,19"/><path id="path4" class="cls-4" d="M228.34,151.66c-5.15-.47-9.49-1-9.64-1.12s6.5-8,14.78-17.46c14.41-16.46,15.87-18.22,15.4-18.69a24,24,0,0,0-4.68,1.35,32.93,32.93,0,0,1-34.28-7.55c-6.35-6.35-9.43-14.07-9.45-23.7,0-21.39,15.54-36.86,37.21-36.93,11.29,0,19.28,3,26.69,10.25A38.06,38.06,0,0,1,275.22,79c2.28,13.12-1.1,25.52-11,40.43-3.95,5.92-25.14,32.88-26,33-.28.05-4.72-.3-9.88-.76Zm17.12-51.08a18.12,18.12,0,0,0,8.65-8.85c3.06-6.52,2.27-15.45-1.84-21.09-6.3-8.66-20.79-9.35-28.16-1.35C220.55,73.15,219,77.4,219,83.14c0,8.66,4.55,15.09,13,18.3a19.65,19.65,0,0,0,6.28.56c3.63-.1,5-.37,7.25-1.42Z"/></g></g></svg>