<svg xmlns="http://www.w3.org/2000/svg" viewBox="0 0 569.62 200.21"><defs><style>.cls-1{fill:#999;}.cls-2{fill:#82c0c0;}.cls-3{fill:#fff;}.cls-4{fill:#f6a602;}</style></defs><title>Asset 36</title><g id="Layer_2" data-name="Layer 2"><g id="Layer_12" data-name="Layer 12"><path id="path2" class="cls-1" d="M99.91,200.09A100,100,0,1,0,0,100.18a99.74,99.74,0,0,0,99.91,99.91M80.46,150.66l31.43-36v-.63c-5.79,2.48-10.53,3.73-15.51,3.73-16.94,0-33.29-11.79-33.29-33.72,0-20.9,15.12-37.2,38.27-37.2,24.39,0,37.85,19.42,37.85,39.07,0,15.3-6.22,27.73-22.34,47.56l-15.1,19Zm20.29-48.79c11.13,0,18.19-9.32,18.19-19,0-10.75-7.06-19.24-18.19-19.24-11.41,0-18.65,8.49-18.65,19.24,0,9.72,7.24,19,18.65,19"/></g><g id="Layer_14" data-name="Layer 14"><g id="layer1"><g id="g2991"><g id="g528"><path id="path530" class="cls-2" d="M236.68,200.21a100.11,100.11,0,1,0-99.79-100,99.73,99.73,0,0,0,99.79,100m-38.09-49.49V65.42H180.15l6.22-17h31.69V150.72Zm60.47,0V65.42H241.24l5.17-17h32.3V150.72Z"/></g><path id="path2987" class="cls-3" d="M198.85,107.75V65h-9c-4.95,0-9-.14-9-.31s1.29-3.89,2.88-8.25l2.87-7.94h31.25v102h-19V107.75Z"/><path id="path2989" class="cls-3" d="M259.35,107.75V65H250.6c-4.81,0-8.75-.17-8.74-.38s1.08-3.86,2.39-8.12l2.37-7.75,15.87-.13,15.86-.14v102h-19Z"/></g></g></g><g id="Layer_19" data-name="Layer 19"><path class="cls-4" d="M317.49,28.6a4.92,4.92,0,0,1,4.7-3.5h242.5a4.93,4.93,0,0,1,4.7,6.4l-45.1,140.1a4.92,4.92,0,0,1-4.7,3.5H277.09a4.93,4.93,0,0,1-4.7-6.4Z"/><polygon class="cls-3" points="404.29 76.1 404.29 76.1 405.69 74.5 404.29 76.1"/><polygon class="cls-3" points="480.19 132.3 480.19 51.6 444.49 51.6 444.49 68 462.69 68 462.69 132.3 443.09 132.3 443.09 148.7 495.49 148.7 502.29 132.3 480.19 132.3"/><path class="cls-3" d="M418.69,65.3h0c-8.9-9.3-21.1-13.8-36.3-13.8h-43.3l-4.3,16.1h15.5v81h32.1c15.2,0,27.4-4.5,36.3-13.6h0c8.8-9.2,13.1-20.8,13.1-34.8s-4.3-25.7-13.1-34.9Zm-14.4,10.8c5.8,5.2,8.9,13.1,8.9,24,0,11.2-3.1,19.1-9,24.4s-13.5,8.1-22.8,8.1h-13.3V67.8h13.3c9.4,0,16.9,2.9,22.9,8.3Z"/></g></g></svg>