<svg xmlns="http://www.w3.org/2000/svg" viewBox="0 0 434.62 199.98"><defs><style>.cls-1{fill:#999;}.cls-2{fill:#e74182;}.cls-3{fill:#fff;}</style></defs><g id="Layer_2" data-name="Layer 2"><g id="Layer_12" data-name="Layer 12"><path id="path2" class="cls-1" d="M99.91,200A100,100,0,1,0,0,100.07,99.74,99.74,0,0,0,99.91,200M80.46,150.55l31.43-36v-.63c-5.79,2.48-10.53,3.73-15.51,3.73-16.94,0-33.29-11.79-33.29-33.72,0-20.9,15.12-37.21,38.27-37.21,24.39,0,37.85,19.43,37.85,39.08,0,15.3-6.22,27.73-22.34,47.56l-15.1,19Zm20.29-48.8c11.13,0,18.19-9.31,18.19-19,0-10.75-7.06-19.24-18.19-19.24C89.34,63.48,82.1,72,82.1,82.72c0,9.72,7.24,19,18.65,19"/></g><g id="Layer_21" data-name="Layer 21"><path class="cls-2" d="M182.49,26.58a4.92,4.92,0,0,1,4.7-3.5h242.5a4.93,4.93,0,0,1,4.7,6.4l-45.1,140.1a4.92,4.92,0,0,1-4.7,3.5H142.09a4.93,4.93,0,0,1-4.7-6.4Z"/><path class="cls-3" d="M278.19,64.08h0c-8.9-9.3-21.1-13.8-36.3-13.8h-41.7L196,66.38h13.8v81h32.1c15.2,0,27.4-4.5,36.3-13.6h0c8.8-9.2,13.1-20.8,13.1-34.8s-4.3-25.7-13.1-34.9Zm-5.3,34.8c0,11.2-3.1,19.1-9,24.4s-13.5,8.1-22.8,8.1h-13.3V66.58h13.3c9.4,0,17,2.7,22.8,8.2h0C269.79,80.08,272.89,88,272.89,98.88Z"/><path class="cls-3" d="M333.09,131.08l15.4-15.1h0c7.2-7.1,12.9-13.4,16.9-19h0a33.18,33.18,0,0,0,6.2-19.1c0-7.4-2.9-14.3-8.6-20.1h0c-5.8-6.1-14.1-9-24.4-9a43.64,43.64,0,0,0-20,4.7c-5.8,3.1-10.5,6.3-13.8,9.8h0l-1.4,1.5,11.5,11.5,1.5-1.4a41.84,41.84,0,0,1,9.8-6.6h0a25.62,25.62,0,0,1,12.4-3.1,15.58,15.58,0,0,1,10.8,3.7,12.39,12.39,0,0,1,4.2,9.7c0,3.7-1.4,7.6-4.3,11.8h0c-3,4.2-8.8,10.8-17.5,19.5h0l-24.3,24v13.5h63.6l6-16.4C377.09,131.08,333.09,131.08,333.09,131.08Z"/></g></g></svg>