<?xml version="1.0" encoding="UTF-8" standalone="no"?>
<!-- Generator: Adobe Illustrator 22.0.1, SVG Export Plug-In . SVG Version: 6.00 Build 0)  -->

<svg
   xmlns:dc="http://purl.org/dc/elements/1.1/"
   xmlns:cc="http://creativecommons.org/ns#"
   xmlns:rdf="http://www.w3.org/1999/02/22-rdf-syntax-ns#"
   xmlns:svg="http://www.w3.org/2000/svg"
   xmlns="http://www.w3.org/2000/svg"
   xmlns:sodipodi="http://sodipodi.sourceforge.net/DTD/sodipodi-0.dtd"
   xmlns:inkscape="http://www.inkscape.org/namespaces/inkscape"
   version="1.1"
   id="svg3349"
   inkscape:version="0.92.2 (5c3e80d, 2017-08-06)"
   sodipodi:docname="Moskwa_Metro_Line_15.svg"
   x="0px"
   y="0px"
   viewBox="0 0 200 200"
   xml:space="preserve"
   width="200"
   height="200"><metadata
     id="metadata14"><rdf:RDF><cc:Work
         rdf:about=""><dc:format>image/svg+xml</dc:format><dc:type
           rdf:resource="http://purl.org/dc/dcmitype/StillImage" /><dc:title></dc:title></cc:Work></rdf:RDF></metadata><defs
     id="defs12" /><sodipodi:namedview
     pagecolor="#ffffff"
     bordercolor="#666666"
     borderopacity="1"
     objecttolerance="10"
     gridtolerance="10"
     guidetolerance="10"
     inkscape:pageopacity="0"
     inkscape:pageshadow="2"
     inkscape:window-width="1920"
     inkscape:window-height="1027"
     id="namedview10"
     showgrid="false"
     inkscape:pagecheckerboard="true"
     showguides="true"
     fit-margin-top="0"
     fit-margin-left="0"
     fit-margin-right="0"
     fit-margin-bottom="0"
     inkscape:zoom="2.6163425"
     inkscape:cx="88.053288"
     inkscape:cy="87.430432"
     inkscape:window-x="-8"
     inkscape:window-y="-8"
     inkscape:window-maximized="1"
     inkscape:current-layer="svg3349" /><style
     type="text/css"
     id="style2">
	.st0{fill:#DE64A1;stroke:#000000;stroke-opacity:0;}
	.st1{fill:#FFFFFF;}
</style><circle
     id="path2982"
     class="st0"
     cx="100"
     cy="100"
     style="fill:#de64a1;stroke:#000000;stroke-width:0.19980021;stroke-opacity:0"
     r="99.900101" /><g
     id="g7"
     transform="translate(1.6242266e-6,9.2536211e-6)"><path
       id="path2987"
       inkscape:connector-curvature="0"
       class="st1"
       d="M 50.4,108.3 V 65.8 h -9 c -6.1,0 -9,-0.2 -9,-0.5 0,-0.3 1.1,-4 2.5,-8.3 l 2.5,-7.7 h 16 16 v 50.7 50.8 h -9.5 -9.5 z"
       style="fill:#ffffff" /><path
       id="path2987_2_"
       inkscape:connector-curvature="0"
       class="st1"
       d="m 121.1,155.4 c -10.2,-1 -20.5,-5.5 -27.7,-11.9 l -2.5,-2.2 6,-6 c 3.3,-3.3 6.1,-6 6.2,-6 0.1,0 1.5,0.9 2.9,2 14.9,11.2 36.2,8.9 41.2,-4.3 1.4,-3.8 1.2,-10.4 -0.4,-13.8 -3.4,-7 -12.1,-10.9 -21.3,-9.6 -3.9,0.5 -8.9,2.3 -12,4.3 l -1.9,1.2 -7.1,-0.8 c -3.9,-0.5 -7.2,-0.9 -7.2,-1 C 97.1,107.1 99.6,53 99.9,51 l 0.2,-1.6 h 32.9 32.7 l -2.8,8.1 -2.8,8.1 -22.3,0.1 -22.3,0.1 -0.3,3 c -0.6,6.2 -1.3,21.3 -1,21.6 0.2,0.2 1.4,-0.2 2.8,-0.8 6.9,-2.8 17.8,-3.7 24.8,-1.8 12.3,3.2 21.4,11.3 25,22.2 1,3 1.2,4.5 1.2,9.9 0,5.7 -0.1,6.7 -1.4,10.6 -4.4,13.6 -16.7,23.1 -32.4,25 -4.6,0.5 -7.1,0.5 -13.1,-0.1 z"
       style="fill:#ffffff" /></g></svg>