<?xml version="1.0" encoding="UTF-8" standalone="no"?>
<svg
   xmlns:dc="http://purl.org/dc/elements/1.1/"
   xmlns:cc="http://creativecommons.org/ns#"
   xmlns:rdf="http://www.w3.org/1999/02/22-rdf-syntax-ns#"
   xmlns:svg="http://www.w3.org/2000/svg"
   xmlns="http://www.w3.org/2000/svg"
   xmlns:sodipodi="http://sodipodi.sourceforge.net/DTD/sodipodi-0.dtd"
   xmlns:inkscape="http://www.inkscape.org/namespaces/inkscape"
   width="200"
   height="199.979"
   version="1.1"
   id="svg6"
   sodipodi:docname="Moskwa_Metro_Line_9.svg"
   inkscape:version="0.92.2 (5c3e80d, 2017-08-06)">
  <metadata
     id="metadata12">
    <rdf:RDF>
      <cc:Work
         rdf:about="">
        <dc:format>image/svg+xml</dc:format>
        <dc:type
           rdf:resource="http://purl.org/dc/dcmitype/StillImage" />
        <dc:title></dc:title>
      </cc:Work>
    </rdf:RDF>
  </metadata>
  <defs
     id="defs10" />
  <sodipodi:namedview
     pagecolor="#ffffff"
     bordercolor="#666666"
     borderopacity="1"
     objecttolerance="10"
     gridtolerance="10"
     guidetolerance="10"
     inkscape:pageopacity="0"
     inkscape:pageshadow="2"
     inkscape:window-width="1920"
     inkscape:window-height="1027"
     id="namedview8"
     showgrid="false"
     inkscape:zoom="3.7004555"
     inkscape:cx="50.045854"
     inkscape:cy="103.73723"
     inkscape:window-x="-8"
     inkscape:window-y="-8"
     inkscape:window-maximized="1"
     inkscape:current-layer="svg6" />
  <path
     d="M99.908 199.98C155.533 199.98 200 155.306 200 100.07 200 44.672 155.533 0 99.908 0 44.898 0 0 44.672 0 100.072c0 55.235 44.898 99.907 99.908 99.907m-19.444-49.43l31.422-35.977v-.636c-5.784 2.482-10.522 3.733-15.506 3.733-16.942 0-33.29-11.794-33.29-33.72 0-20.9 15.117-37.206 38.274-37.206 24.387 0 37.842 19.424 37.842 39.073 0 15.3-6.215 27.73-22.336 47.564l-15.096 19.015-21.31-1.846zm20.285-48.796c11.136 0 18.192-9.312 18.192-19.034 0-10.748-7.056-19.24-18.193-19.24-11.405 0-18.646 8.492-18.646 19.24 0 9.722 7.24 19.034 18.645 19.034"
     fill="#9f9f9f"
     id="path2"
     style="fill:#999999;fill-opacity:1" />
  <path
     d="M91.34 151.29c-5.154-.467-9.493-.97-9.642-1.118-.148-.15 6.504-8.005 14.783-17.46 14.412-16.457 15.868-18.224 15.403-18.69-.113-.112-2.222.495-4.687 1.35-12.195 4.233-25.403 1.322-34.278-7.553-6.348-6.35-9.426-14.07-9.445-23.695-.042-21.395 15.535-36.86 37.204-36.933 11.295-.04 19.283 3.03 26.694 10.253 5.697 5.552 9.375 12.726 10.844 21.15 2.287 13.12-1.098 25.52-11.035 40.426-3.95 5.925-25.14 32.88-25.965 33.03-.275.05-4.718-.293-9.874-.76zm17.125-51.073c3.742-1.76 6.786-4.877 8.65-8.858 3.05-6.518 2.27-15.445-1.842-21.09-6.304-8.652-20.79-9.347-28.16-1.35-3.56 3.86-5.136 8.11-5.137 13.85 0 8.66 4.555 15.093 12.96 18.3 1.13.43 3.423.634 6.28.56 3.633-.097 5.028-.368 7.25-1.413z"
     fill="#fff"
     id="path4" />
</svg>
