<?xml version="1.0" encoding="UTF-8" standalone="no"?>
<svg
   xmlns:dc="http://purl.org/dc/elements/1.1/"
   xmlns:cc="http://creativecommons.org/ns#"
   xmlns:rdf="http://www.w3.org/1999/02/22-rdf-syntax-ns#"
   xmlns:svg="http://www.w3.org/2000/svg"
   xmlns="http://www.w3.org/2000/svg"
   version="1.1"
   id="svg147969"
   height="199.97949"
   width="200">
  <defs
     id="defs147971" />
  <metadata
     id="metadata147974">
    <rdf:RDF>
      <cc:Work
         rdf:about="">
        <dc:format>image/svg+xml</dc:format>
        <dc:type
           rdf:resource="http://purl.org/dc/dcmitype/StillImage" />
        <dc:title></dc:title>
      </cc:Work>
    </rdf:RDF>
  </metadata>
  <g
     transform="translate(-1.0234375,1.6168107)"
     id="layer1">
    <g
       id="g2997">
      <g
         id="g2991">
        <g
           transform="matrix(20.510717,0,0,-20.510717,100.93114,198.36268)"
           id="g562">
          <path
             id="path564"
             style="fill:#a1b3d4;fill-opacity:1;fill-rule:nonzero;stroke:none"
             d="M 0,0 C 2.712,0 4.88,2.178 4.88,4.871 4.88,7.572 2.712,9.75 0,9.75 -2.693,9.75 -4.871,7.572 -4.871,4.871 -4.871,2.178 -2.693,0 0,0 m -0.424,2.41 0,0.696 1.271,1.26 c 0.958,0.927 1.129,1.2 1.129,1.552 0,0.424 -0.373,0.717 -0.826,0.717 -0.414,0 -0.827,-0.211 -1.16,-0.525 l -0.595,0.596 c 0.424,0.444 1.12,0.765 1.785,0.765 1.108,0 1.734,-0.665 1.734,-1.452 0,-0.675 -0.353,-1.148 -1.23,-1.945 l -0.867,-0.808 0,-0.019 2.309,0 -0.282,-0.837 -3.268,0 z m -2.006,0 0,4.154 -0.888,0 0.272,0.827 1.574,0 0,-4.981 -0.958,0 z" />
        </g>
        <path
           transform="translate(1.0234375,-1.6168107)"
           id="path2987"
           d="m 50.46474,107.77148 0,-42.5 -9,0 c -6.102365,0 -9,-0.173585 -9,-0.539151 0,-0.296533 1.137891,-4.009033 2.528648,-8.25 l 2.528647,-7.710849 15.971352,0 15.971353,0 0,50.75 0,50.75 -9.5,0 -9.5,0 0,-42.5 z"
           style="fill:#ffffff;fill-opacity:1" />
        <path
           transform="translate(1.0234375,-1.6168107)"
           id="path2989"
           d="m 91.46474,143.39756 0,-6.88101 19.05145,-18.99753 c 20.33821,-20.280665 25.51603,-25.980418 28.06933,-30.898797 1.45908,-2.8106 1.60962,-3.517184 1.61894,-7.598743 0.009,-3.813776 -0.17832,-4.86924 -1.22649,-6.92134 -5.51073,-10.788869 -22.21892,-11.091449 -35.81648,-0.648627 l -3.553245,2.728867 -5.859169,-5.874474 -5.85917,-5.874475 2.537421,-2.281359 c 7.67188,-6.89768 19.089163,-11.862473 29.485643,-12.821802 12.68078,-1.170111 23.97224,2.315295 31.32678,9.669841 8.26476,8.264756 10.36408,19.738724 5.77419,31.559159 -3.15233,8.118265 -8.39932,14.27287 -26.82733,31.46788 -7.54703,7.04206 -13.72187,13.01583 -13.72187,13.27504 0,0.28838 9.1335,0.47129 23.53369,0.47129 22.18581,0 23.51774,0.0501 23.25519,0.875 -0.15318,0.48125 -1.36931,4.1375 -2.70251,8.125 l -2.424,7.25 -33.33119,0.12855 -33.33118,0.12854 0,-6.88101 z"
           style="fill:#ffffff;fill-opacity:1" />
      </g>
    </g>
  </g>
</svg>
