<?xml version="1.0" encoding="UTF-8" standalone="no"?>
<!-- Created with Inkscape (http://www.inkscape.org/) -->

<svg
   xmlns:dc="http://purl.org/dc/elements/1.1/"
   xmlns:cc="http://creativecommons.org/ns#"
   xmlns:rdf="http://www.w3.org/1999/02/22-rdf-syntax-ns#"
   xmlns:svg="http://www.w3.org/2000/svg"
   xmlns="http://www.w3.org/2000/svg"
   xmlns:sodipodi="http://sodipodi.sourceforge.net/DTD/sodipodi-0.dtd"
   xmlns:inkscape="http://www.inkscape.org/namespaces/inkscape"
   width="200"
   height="200.20534"
   id="svg147969"
   version="1.1"
   inkscape:version="0.92.2 (5c3e80d, 2017-08-06)"
   sodipodi:docname="Moskwa_Metro_Line_11.svg">
  <defs
     id="defs147971" />
  <sodipodi:namedview
     id="base"
     pagecolor="#ffffff"
     bordercolor="#666666"
     borderopacity="1.0"
     inkscape:pageopacity="0.0"
     inkscape:pageshadow="2"
     inkscape:zoom="2"
     inkscape:cx="27.46473"
     inkscape:cy="85.708017"
     inkscape:current-layer="layer1"
     inkscape:document-units="px"
     showgrid="false"
     showguides="true"
     inkscape:guide-bbox="true"
     inkscape:snap-bbox="true"
     inkscape:bbox-nodes="true"
     inkscape:bbox-paths="true"
     inkscape:snap-bbox-midpoints="true"
     inkscape:snap-bbox-edge-midpoints="true"
     fit-margin-top="0"
     fit-margin-left="0"
     fit-margin-right="0"
     fit-margin-bottom="0"
     inkscape:window-width="1920"
     inkscape:window-height="1027"
     inkscape:window-x="-8"
     inkscape:window-y="-8"
     inkscape:window-maximized="1">
    <sodipodi:guide
       orientation="1,0"
       position="-8.8899997e-007,-8.4852784"
       id="guide148130"
       inkscape:locked="false" />
    <sodipodi:guide
       orientation="0,1"
       position="270.11479,2.6853589e-006"
       id="guide148132"
       inkscape:locked="false" />
    <sodipodi:guide
       orientation="1,0"
       position="200,2.6853589e-006"
       id="guide148134"
       inkscape:locked="false" />
  </sodipodi:namedview>
  <metadata
     id="metadata147974">
    <rdf:RDF>
      <cc:Work
         rdf:about="">
        <dc:format>image/svg+xml</dc:format>
        <dc:type
           rdf:resource="http://purl.org/dc/dcmitype/StillImage" />
        <dc:title />
      </cc:Work>
    </rdf:RDF>
  </metadata>
  <g
     id="layer1"
     inkscape:label="Layer 1"
     inkscape:groupmode="layer"
     transform="translate(-1.0234383,1.8426498)">
    <g
       id="g2991">
      <g
         transform="matrix(20.533881,0,0,-20.533881,100.8181,198.36269)"
         id="g528">
        <path
           id="path530"
           style="fill:#82C0C0;fill-opacity:1;fill-rule:nonzero;stroke:none"
           d="M 0,0 C 2.723,0 4.88,2.178 4.88,4.871 4.88,7.572 2.723,9.75 0,9.75 -2.693,9.75 -4.86,7.572 -4.86,4.871 -4.86,2.178 -2.693,0 0,0 m -1.855,2.41 0,4.154 -0.898,0 0.303,0.827 1.543,0 0,-4.981 -0.948,0 z m 2.945,0 0,4.154 -0.868,0 0.252,0.827 1.573,0 0,-4.981 -0.957,0 z"
           inkscape:connector-curvature="0" />
      </g>
      <path
         transform="translate(1.0234383,-1.8426498)"
         inkscape:connector-curvature="0"
         id="path2987"
         d="m 61.96473,107.74732 0,-42.749999 -9,0 c -4.95,0 -9,-0.139677 -9,-0.310393 0,-0.170716 1.29375,-3.88253 2.875,-8.248475 l 2.875,-7.938081 15.625,-0.0015 15.625,-0.0015 0,51 0,50.999999 -9.5,0 -9.5,0 0,-42.75 z"
         style="fill:#ffffff;fill-opacity:1" />
      <path
         transform="translate(1.0234383,-1.8426498)"
         inkscape:connector-curvature="0"
         id="path2989"
         d="m 122.46473,107.74732 0,-42.749999 -8.75,0 c -4.8125,0 -8.74601,-0.16875 -8.74113,-0.375 0.005,-0.20625 1.07846,-3.8625 2.38575,-8.125 l 2.37689,-7.75 15.86425,-0.132024 15.86424,-0.132024 0,51.007023 0,51.007024 -9.5,0 -9.5,0 0,-42.75 z"
         style="fill:#ffffff;fill-opacity:1" />
    </g>
  </g>
</svg>
