<?xml version="1.0" encoding="UTF-8" standalone="no"?>
<!-- Created with Inkscape (http://www.inkscape.org/) -->

<svg
   xmlns:dc="http://purl.org/dc/elements/1.1/"
   xmlns:cc="http://creativecommons.org/ns#"
   xmlns:rdf="http://www.w3.org/1999/02/22-rdf-syntax-ns#"
   xmlns:svg="http://www.w3.org/2000/svg"
   xmlns="http://www.w3.org/2000/svg"
   xmlns:sodipodi="http://sodipodi.sourceforge.net/DTD/sodipodi-0.dtd"
   xmlns:inkscape="http://www.inkscape.org/namespaces/inkscape"
   width="200"
   height="199.38588"
   id="svg147969"
   version="1.1"
   inkscape:version="0.92.2 (5c3e80d, 2017-08-06)"
   sodipodi:docname="Moskwa_Metro_Line_8A.svg">
  <defs
     id="defs147971" />
  <sodipodi:namedview
     id="base"
     pagecolor="#ffffff"
     bordercolor="#666666"
     borderopacity="1.0"
     inkscape:pageopacity="0.0"
     inkscape:pageshadow="2"
     inkscape:zoom="2.4251553"
     inkscape:cx="-0.42717745"
     inkscape:cy="134.68935"
     inkscape:current-layer="g460"
     inkscape:document-units="px"
     showgrid="false"
     showguides="true"
     inkscape:guide-bbox="true"
     inkscape:snap-bbox="true"
     inkscape:bbox-nodes="true"
     inkscape:bbox-paths="true"
     inkscape:snap-bbox-midpoints="true"
     inkscape:snap-bbox-edge-midpoints="true"
     fit-margin-top="0"
     fit-margin-left="0"
     fit-margin-right="0"
     fit-margin-bottom="0"
     inkscape:window-width="1920"
     inkscape:window-height="1027"
     inkscape:window-x="-8"
     inkscape:window-y="-8"
     inkscape:window-maximized="1">
    <sodipodi:guide
       orientation="1,0"
       position="0,-8.4852949"
       id="guide148130"
       inkscape:locked="false" />
    <sodipodi:guide
       orientation="0,1"
       position="270.11479,-1.3429344e-005"
       id="guide148132"
       inkscape:locked="false" />
    <sodipodi:guide
       orientation="1,0"
       position="200,-1.3429344e-005"
       id="guide148134"
       inkscape:locked="false" />
  </sodipodi:namedview>
  <metadata
     id="metadata147974">
    <rdf:RDF>
      <cc:Work
         rdf:about="">
        <dc:format>image/svg+xml</dc:format>
        <dc:type
           rdf:resource="http://purl.org/dc/dcmitype/StillImage" />
        <dc:title></dc:title>
      </cc:Work>
    </rdf:RDF>
  </metadata>
  <g
     id="layer1"
     inkscape:label="Layer 1"
     inkscape:groupmode="layer"
     transform="translate(-1.0234375,1.0232215)">
    <g
       id="g456"
       transform="matrix(20.470829,0,0,-20.470829,1.0234375,98.874424)">
      <path
         inkscape:connector-curvature="0"
         d="M 0,0 C 0,-2.682 2.188,-4.86 4.901,-4.86 7.592,-4.86 9.77,-2.682 9.77,0 9.77,2.723 7.592,4.88 4.901,4.88 2.188,4.88 0,2.723 0,0"
         style="fill:#ffd702;fill-opacity:1;fill-rule:nonzero;stroke:none"
         id="path458" />
    </g>
    <g
       id="g460"
       transform="matrix(20.470829,0,0,-20.470829,44.163661,95.161012)">
      <path
         inkscape:connector-curvature="0"
         d="m 0,0 c -0.373,-0.131 -0.716,-0.545 -0.716,-1.008 0,-0.797 0.656,-1.291 1.634,-1.291 0.967,0 1.633,0.494 1.633,1.291 0,0.463 -0.323,0.877 -0.716,1.008 l 0,0.01 C 2.238,0.172 2.45,0.554 2.45,0.928 2.45,1.594 1.866,2.137 0.918,2.137 -0.03,2.137 -0.625,1.594 -0.625,0.928 -0.625,0.554 -0.394,0.172 0,0.01 L 0,0 z m 0.131,-0.998 c 0,0.313 0.272,0.604 0.787,0.604 0.514,0 0.816,-0.291 0.816,-0.604 0,-0.303 -0.302,-0.615 -0.816,-0.615 -0.515,0 -0.787,0.312 -0.787,0.615 m 0.08,1.885 c 0,0.303 0.213,0.575 0.707,0.575 0.474,0 0.736,-0.272 0.736,-0.575 0,-0.303 -0.262,-0.564 -0.736,-0.564 -0.494,0 -0.707,0.261 -0.707,0.564 m 2.34,-3.106 0.868,0 0.302,0.888 1.663,0 0.323,-0.888 0.877,0 -1.653,4.287 -0.717,0 -1.663,-4.287 z m 1.411,1.564 0.586,1.603 0.01,0 0.574,-1.603 -1.17,0 z"
         style="fill:#060506;fill-opacity:1;fill-rule:nonzero;stroke:none"
         id="path462" />
    </g>
  </g>
</svg>
